<svg width="72" height="72" viewBox="0 0 72 72" fill="none" xmlns="http://www.w3.org/2000/svg">
<path d="M37.2929 38.7071C37.6834 39.0976 38.3166 39.0976 38.7071 38.7071C39.0976 38.3166 39.0976 37.6834 38.7071 37.2929L37.2929 38.7071ZM34 34L33.2929 33.2929C32.9024 33.6834 32.9024 34.3166 33.2929 34.7071L34 34ZM38.7071 30.7071C39.0976 30.3166 39.0976 29.6834 38.7071 29.2929C38.3166 28.9024 37.6834 28.9024 37.2929 29.2929L38.7071 30.7071ZM38.7071 37.2929L34.7071 33.2929L33.2929 34.7071L37.2929 38.7071L38.7071 37.2929ZM34.7071 34.7071L38.7071 30.7071L37.2929 29.2929L33.2929 33.2929L34.7071 34.7071Z" fill="#4F4F4F"/>
<g filter="url(#filter0_d_266_2242)">
<rect x="17" y="15" width="38" height="38" rx="9" stroke="white" stroke-width="2" shape-rendering="crispEdges"/>
</g>
<defs>
<filter id="filter0_d_266_2242" x="0" y="0" width="72" height="72" filterUnits="userSpaceOnUse" color-interpolation-filters="sRGB">
<feFlood flood-opacity="0" result="BackgroundImageFix"/>
<feColorMatrix in="SourceAlpha" type="matrix" values="0 0 0 0 0 0 0 0 0 0 0 0 0 0 0 0 0 0 127 0" result="hardAlpha"/>
<feOffset dy="2"/>
<feGaussianBlur stdDeviation="8"/>
<feComposite in2="hardAlpha" operator="out"/>
<feColorMatrix type="matrix" values="0 0 0 0 0.0862745 0 0 0 0 0.0980392 0 0 0 0 0.309804 0 0 0 0.16 0"/>
<feBlend mode="normal" in2="BackgroundImageFix" result="effect1_dropShadow_266_2242"/>
<feBlend mode="normal" in="SourceGraphic" in2="effect1_dropShadow_266_2242" result="shape"/>
</filter>
</defs>
</svg>
