<svg width="279" height="303" viewBox="0 0 279 303" fill="none" xmlns="http://www.w3.org/2000/svg">
<rect width="279" height="303" fill="#BDBDBD"/>
<g clip-path="url(#clip0_4_3)">
<rect width="375" height="812" transform="translate(-63 -199)" fill="white"/>
<path d="M-124.057 77.1557C-191.762 113.841 -277.931 61.8703 -312.553 31.2995C-368.973 -6.02947 -423.684 37.9231 -425.821 77.1557C-427.958 116.388 -412.144 172.435 -312.553 270.261C-212.962 368.088 -111.235 260.58 -91.1454 248.352C-79.493 241.259 36.228 162.754 109.318 149.507C182.408 136.259 313.628 201.986 376.033 248.352C425.956 285.445 541.305 271.28 592.739 259.561C613.255 254.976 657.793 226.545 671.813 149.507C689.337 53.2085 596.468 40.286 574.359 49.1324C547.68 59.8075 480.325 99.5742 441.002 108.745C401.679 117.917 325.596 62.8892 308.072 49.1324C290.547 35.3755 161.892 -35.4468 102.907 -36.9753C43.9217 -38.5039 -39.4267 31.2995 -124.057 77.1557Z" fill="#F2F6FF"/>
<path fill-rule="evenodd" clip-rule="evenodd" d="M-18.4196 226C-10.6687 226.038 -2.72923 229.605 -0.481293 237.109C1.66563 244.277 -3.7213 250.732 -9.68038 255.175C-15.8118 259.747 -23.6309 263.361 -29.9804 259.104C-37.04 254.372 -39.7156 245.011 -36.8945 236.933C-34.2669 229.409 -26.3071 225.962 -18.4196 226Z" fill="#F2F6FF"/>
<path d="M142.715 295.579C142.715 299.423 112.415 302.581 75.0485 302.581C37.6822 302.581 7.38184 299.449 7.38184 295.579C7.38184 291.71 37.6758 288.578 75.0485 288.578C112.421 288.578 142.715 291.716 142.715 295.579Z" fill="#F2F6FF"/>
<path d="M0.309082 278.616L35.0937 278.463L69.8847 278.405L139.46 278.296L209.036 278.405L243.827 278.463L278.612 278.616L243.827 278.777L209.036 278.828L139.46 278.937L69.8847 278.828L35.0937 278.77L0.309082 278.616Z" fill="#263238"/>
<path d="M250.381 234.863C250.636 228.412 250.548 221.952 250.118 215.51C249.165 202.225 247.136 189.039 244.051 176.081C242.36 168.785 240.278 161.61 238.113 154.448C238.043 154.23 237.697 154.288 237.761 154.512C244.468 179.778 249.971 205.844 249.593 232.102C249.49 239.45 248.638 246.669 247.94 253.972C247.94 254.164 248.241 254.247 248.286 254.042C249.644 247.797 250.124 241.25 250.381 234.863Z" fill="url(#paint0_linear_4_3)"/>
<path d="M237.761 154.513C237.761 154.513 227.595 180.31 229.875 186.376C232.156 192.443 236.832 193.73 236.832 193.73C236.832 193.73 230.612 202.609 234.961 210.937C239.311 219.264 248.959 218.867 249.599 228.31C249.606 228.31 250.144 188.836 237.761 154.513Z" fill="url(#paint1_linear_4_3)"/>
<path d="M248.504 212.039C248.519 211.995 248.519 211.948 248.504 211.904C247.169 194.294 243.862 176.889 238.645 160.016C238.645 159.964 238.549 159.977 238.562 160.016C240.577 167.562 242.356 175.149 243.898 182.776C242.534 181.483 240.866 180.553 239.049 180.073C239.017 180.073 238.997 180.111 239.049 180.124C240.926 180.938 242.732 181.879 244.058 183.474C244.353 184.967 244.647 186.46 244.923 187.959C242.649 185.396 239.503 184.16 236.352 182.968C236.307 182.968 236.281 183.02 236.352 183.032C239.631 184.371 242.905 186.094 245.128 188.92C245.901 193.19 246.58 197.486 247.165 201.808C245.525 200.087 243.419 198.881 241.105 198.336C241.09 198.331 241.075 198.332 241.061 198.339C241.047 198.345 241.036 198.357 241.031 198.372C241.026 198.386 241.027 198.402 241.034 198.416C241.04 198.43 241.052 198.44 241.066 198.445C243.455 199.13 245.593 200.497 247.216 202.379L247.255 202.411C247.451 203.922 247.641 205.438 247.825 206.959C246.553 205.886 245.12 205.021 243.578 204.396C243.539 204.396 243.514 204.448 243.578 204.46C245.149 205.145 246.588 206.099 247.831 207.279C247.831 207.279 247.863 207.279 247.882 207.279C248.055 208.727 248.222 210.168 248.369 211.616C246.078 208.852 243.106 206.732 239.747 205.466C239.683 205.466 239.651 205.543 239.715 205.569C243.031 207.031 245.946 209.272 248.209 212.103C248.233 212.135 248.266 212.159 248.304 212.172C248.341 212.184 248.382 212.185 248.421 212.173C248.638 214.39 248.837 216.613 248.997 218.842C248.997 218.874 249.055 218.874 249.048 218.842C248.843 216.568 248.683 214.287 248.504 212.039Z" fill="#263238"/>
<path d="M240.336 177.491C238.499 176.34 236.397 175.678 234.231 175.569C234.221 175.569 234.211 175.574 234.204 175.581C234.197 175.588 234.193 175.598 234.193 175.608C234.193 175.618 234.197 175.628 234.204 175.635C234.211 175.642 234.221 175.646 234.231 175.646C236.321 176.033 238.351 176.697 240.266 177.619C240.281 177.619 240.295 177.615 240.308 177.608C240.321 177.6 240.332 177.589 240.339 177.576C240.346 177.563 240.35 177.548 240.349 177.533C240.349 177.518 240.344 177.504 240.336 177.491V177.491Z" fill="#263238"/>
<path d="M241.573 204.8C240.156 203.992 238.6 203.46 236.986 203.231C236.928 203.231 236.928 203.308 236.986 203.321C238.564 203.636 240.091 204.171 241.521 204.909C241.579 204.941 241.63 204.839 241.573 204.8Z" fill="#263238"/>
<path d="M277.1 186.793C272.802 189.765 268.854 193.214 265.333 197.074C261.707 201.162 258.907 205.913 257.088 211.065C253.224 221.809 251.146 233.114 250.938 244.53C250.807 250.851 251.416 257.165 252.751 263.345C252.761 263.391 252.788 263.432 252.828 263.459C252.867 263.485 252.916 263.495 252.963 263.485C253.009 263.476 253.05 263.449 253.077 263.409C253.103 263.369 253.113 263.321 253.104 263.274C251.445 252.369 251.508 241.271 253.289 230.386C255.032 219.713 257.774 208.106 264.558 199.432C268.254 194.711 272.885 190.995 277.408 187.158C277.651 186.953 277.344 186.62 277.1 186.793Z" fill="url(#paint2_linear_4_3)"/>
<path d="M252.437 236.843C254.884 232.886 257.759 229.211 261.008 225.882C266.095 220.802 270.374 217.189 271.034 213.826C271.694 210.463 265.941 207.99 265.941 207.99C265.941 207.99 272.988 209.271 274.91 206.299C276.831 203.326 277.767 186.248 277.767 186.248C277.767 186.248 264.961 195.383 258.997 208.195C253.033 221.007 252.437 236.843 252.437 236.843Z" fill="url(#paint3_linear_4_3)"/>
<path d="M273.186 202.289C272.338 202.165 271.479 202.135 270.624 202.199C270.522 202.199 270.528 202.379 270.624 202.379C271.47 202.379 272.309 202.34 273.154 202.379C273.161 202.384 273.168 202.388 273.176 202.39C273.185 202.392 273.193 202.392 273.201 202.39C273.209 202.388 273.217 202.384 273.223 202.378C273.229 202.372 273.234 202.365 273.237 202.357C273.239 202.35 273.24 202.341 273.239 202.333C273.238 202.325 273.235 202.317 273.23 202.31C273.225 202.303 273.218 202.298 273.211 202.294C273.203 202.29 273.195 202.289 273.186 202.289Z" fill="#263238"/>
<path d="M263.974 218.874C262.623 218.907 261.287 219.175 260.028 219.668C260.028 219.668 260.028 219.733 260.028 219.726C261.309 219.412 262.648 219.291 263.968 219.086C263.996 219.086 264.023 219.076 264.043 219.057C264.064 219.038 264.076 219.011 264.077 218.983C264.078 218.955 264.067 218.928 264.048 218.907C264.029 218.887 264.002 218.875 263.974 218.874V218.874Z" fill="#263238"/>
<path d="M261.213 213.146C260.653 213.138 260.092 213.187 259.542 213.294C259.484 213.294 259.484 213.396 259.542 213.396C260.102 213.425 260.664 213.4 261.22 213.319C261.239 213.314 261.255 213.302 261.266 213.286C261.278 213.27 261.284 213.25 261.283 213.23C261.282 213.211 261.275 213.192 261.262 213.177C261.25 213.162 261.233 213.151 261.213 213.146Z" fill="#263238"/>
<path d="M214.917 204.941C219.081 206.355 223.072 208.235 226.813 210.546C230.693 213.017 234.058 216.214 236.723 219.963C242.328 227.765 246.619 236.432 249.426 245.619C250.995 250.703 251.962 255.953 252.309 261.263C252.311 261.282 252.309 261.301 252.304 261.32C252.298 261.339 252.289 261.356 252.277 261.371C252.265 261.387 252.25 261.399 252.233 261.409C252.216 261.418 252.197 261.424 252.178 261.426C252.158 261.428 252.139 261.426 252.12 261.421C252.101 261.415 252.084 261.406 252.069 261.394C252.053 261.382 252.041 261.367 252.032 261.35C252.022 261.333 252.016 261.314 252.014 261.295C250.835 252.084 248.217 243.115 244.257 234.716C240.413 226.484 235.48 217.721 227.985 212.295C223.905 209.329 219.318 207.388 214.744 205.332C214.507 205.197 214.674 204.858 214.917 204.941Z" fill="url(#paint4_linear_4_3)"/>
<path d="M246.441 239.745C243.545 237.109 240.368 234.8 236.967 232.859C231.682 229.918 227.358 227.984 226.076 225.421C224.795 222.859 228.844 219.515 228.844 219.515C228.844 219.515 223.444 222.167 221.208 220.22C218.972 218.272 214.257 204.653 214.257 204.653C214.257 204.653 226.73 209.086 234.52 218.106C242.309 227.125 246.441 239.745 246.441 239.745Z" fill="url(#paint5_linear_4_3)"/>
<path d="M245.801 236.939C239.561 225.229 231.24 214.639 219.837 207.651C222.808 209.565 225.596 211.75 228.165 214.178C225.843 214.057 223.531 214.547 221.458 215.6C221.453 215.603 221.449 215.606 221.446 215.61C221.443 215.614 221.44 215.619 221.439 215.624C221.437 215.629 221.437 215.635 221.437 215.64C221.438 215.645 221.439 215.65 221.442 215.655C221.444 215.659 221.448 215.664 221.452 215.667C221.456 215.67 221.461 215.673 221.466 215.674C221.471 215.676 221.476 215.676 221.481 215.676C221.487 215.675 221.492 215.673 221.496 215.671C223.699 214.848 226.038 214.452 228.389 214.505C228.416 214.512 228.445 214.512 228.472 214.505C228.876 214.889 229.273 215.274 229.67 215.671C228.465 215.726 227.267 215.884 226.089 216.145C226.057 216.145 226.089 216.203 226.089 216.196C227.337 215.961 228.606 215.855 229.875 215.882C231.96 217.997 233.923 220.228 235.756 222.564C234.918 222.446 234.064 222.508 233.251 222.743C233.242 222.747 233.233 222.753 233.227 222.762C233.221 222.77 233.218 222.781 233.218 222.791C233.218 222.802 233.221 222.812 233.227 222.82C233.233 222.829 233.242 222.836 233.251 222.839C234.138 222.737 235.033 222.724 235.923 222.801C236.269 223.236 236.608 223.666 236.948 224.082C234.41 223.939 231.865 224.199 229.408 224.851C229.369 224.851 229.408 224.915 229.408 224.908C231.966 224.407 234.577 224.237 237.178 224.402C237.499 224.825 237.819 225.261 238.113 225.683C236.602 225.65 235.093 225.825 233.629 226.202C233.578 226.202 233.591 226.305 233.629 226.292C235.16 225.96 236.729 225.837 238.293 225.927C239.638 227.778 240.919 229.668 242.136 231.577C241.476 231.46 240.798 231.502 240.157 231.699C240.125 231.699 240.157 231.756 240.157 231.75C240.872 231.697 241.59 231.732 242.297 231.852C243.407 233.561 244.475 235.305 245.5 237.086C245.634 237.201 245.878 237.093 245.801 236.939Z" fill="#263238"/>
<path d="M225.212 212.961C224.653 212.916 224.09 212.948 223.54 213.057C223.476 213.057 223.495 213.16 223.54 213.153C224.091 213.096 224.635 213.115 225.18 213.102C225.301 213.096 225.301 212.967 225.212 212.961Z" fill="#263238"/>
<path d="M262.526 278.456H234.378L238.389 249.059L239.414 241.519H257.485L258.51 249.059L262.526 278.456Z" fill="#455A64"/>
<path d="M258.51 249.059H238.388L239.413 241.519H257.485L258.51 249.059Z" fill="#263238"/>
<path d="M260.073 238.906H236.832V245.292H260.073V238.906Z" fill="#455A64"/>
<path d="M192.124 40.0377H86.784C85.3682 40.0503 83.9689 40.3422 82.6662 40.8967C81.3636 41.4513 80.1832 42.2576 79.1928 43.2694C78.2025 44.2812 77.4216 45.4785 76.8951 46.7927C76.3685 48.107 76.1066 49.5122 76.1244 50.9279V267.771C76.1005 270.623 77.2097 273.368 79.2085 275.403C81.2072 277.438 83.9319 278.596 86.784 278.623H192.124C194.978 278.598 197.705 277.44 199.706 275.406C201.707 273.371 202.819 270.625 202.797 267.771V50.8959C202.809 49.482 202.543 48.0796 202.014 46.7686C201.484 45.4576 200.702 44.2638 199.71 43.2554C198.719 42.2471 197.539 41.4439 196.238 40.8918C194.936 40.3397 193.538 40.0494 192.124 40.0377V40.0377ZM196.134 261.045C196.134 266.753 191.862 271.371 186.59 271.371H92.338C87.053 271.371 82.7802 266.753 82.7802 261.045V59.1148C82.7802 47.4879 87.053 46.9434 92.338 46.9434H111.216C112.312 46.9434 113.209 48.2246 113.209 49.7364V50.377C113.209 53.9964 115.195 54.0092 117.629 54.0092H161.286C163.739 54.0092 165.706 54.0092 165.706 50.377V49.7364C165.706 48.1926 166.59 46.9434 167.705 46.9434H186.59C191.862 46.9434 196.134 48.4872 196.134 59.1148V261.045Z" fill="#37474F"/>
<path d="M145.412 49.4865H133.503C133.307 49.4865 133.12 49.4089 132.982 49.2708C132.844 49.1326 132.766 48.9452 132.766 48.7499C132.774 48.5601 132.856 48.3808 132.993 48.2495C133.13 48.1182 133.313 48.045 133.503 48.0452H145.412C145.508 48.0443 145.604 48.0626 145.693 48.0989C145.782 48.1353 145.864 48.1889 145.932 48.2568C146.001 48.3247 146.055 48.4055 146.092 48.4945C146.129 48.5835 146.148 48.679 146.148 48.7755C146.143 48.9669 146.063 49.1487 145.925 49.2817C145.788 49.4147 145.603 49.4883 145.412 49.4865Z" fill="#315C71"/>
<path d="M196.135 59.1146V261.057C196.135 266.765 191.862 271.384 186.59 271.384H92.3444C87.0595 271.384 82.7803 266.765 82.7803 261.057V59.1146C82.7803 47.4877 87.0595 46.9432 92.3444 46.9432H111.217C112.312 46.9432 113.209 48.2244 113.209 49.7362V50.3768C113.209 53.9962 115.195 54.009 117.629 54.009H161.286C163.746 54.009 165.706 54.009 165.706 50.3768V49.7362C165.706 48.1924 166.59 46.9432 167.705 46.9432H186.59C191.862 46.9176 196.135 48.4614 196.135 59.1146Z" fill="white"/>
<path d="M196.134 59.1146V84.3607H82.7478V59.1146C82.7478 47.4877 87.0206 46.9432 92.3056 46.9432H111.19C112.286 46.9432 113.183 48.2244 113.183 49.7362V50.3768C113.183 53.9962 115.162 54.009 117.596 54.009H161.253C163.707 54.009 165.68 54.009 165.68 50.3768V49.7362C165.68 48.1924 166.564 46.9432 167.679 46.9432H186.551C191.855 46.9176 196.134 48.4614 196.134 59.1146Z" fill="url(#paint6_linear_4_3)"/>
<path d="M94.2532 73.2333L90.9028 70.0944L94.2532 66.9554L94.7721 67.5128L92.0175 70.0944L94.7721 72.676L94.2532 73.2333Z" fill="white"/>
<path d="M187.358 68.1407C187.358 68.2674 187.321 68.3913 187.25 68.4966C187.18 68.602 187.08 68.6841 186.963 68.7326C186.846 68.781 186.717 68.7937 186.593 68.769C186.469 68.7443 186.354 68.6833 186.265 68.5937C186.175 68.5041 186.114 68.39 186.089 68.2657C186.065 68.1414 186.077 68.0126 186.126 67.8956C186.174 67.7785 186.256 67.6785 186.362 67.6081C186.467 67.5377 186.591 67.5001 186.718 67.5001C186.888 67.5001 187.051 67.5676 187.171 67.6877C187.291 67.8079 187.358 67.9708 187.358 68.1407Z" fill="white"/>
<path d="M187.358 70.466C187.358 70.5927 187.321 70.7166 187.25 70.8219C187.18 70.9273 187.08 71.0094 186.963 71.0579C186.846 71.1064 186.717 71.119 186.593 71.0943C186.469 71.0696 186.354 71.0086 186.265 70.919C186.175 70.8294 186.114 70.7153 186.089 70.591C186.065 70.4668 186.077 70.3379 186.126 70.2209C186.174 70.1038 186.256 70.0038 186.362 69.9334C186.467 69.863 186.591 69.8254 186.718 69.8254C186.888 69.8254 187.051 69.8929 187.171 70.0131C187.291 70.1332 187.358 70.2961 187.358 70.466Z" fill="white"/>
<path d="M187.358 72.8235C187.358 72.9502 187.321 73.074 187.25 73.1794C187.18 73.2847 187.08 73.3668 186.963 73.4153C186.846 73.4638 186.717 73.4765 186.593 73.4518C186.469 73.427 186.354 73.366 186.265 73.2764C186.175 73.1868 186.114 73.0727 186.089 72.9484C186.065 72.8242 186.077 72.6954 186.126 72.5783C186.174 72.4613 186.256 72.3612 186.362 72.2908C186.467 72.2204 186.591 72.1829 186.718 72.1829C186.888 72.1829 187.051 72.2504 187.171 72.3705C187.291 72.4906 187.358 72.6536 187.358 72.8235Z" fill="white"/>
<path d="M107.963 51.453L107.777 51.6387L107.674 51.7412C107.444 51.5094 107.17 51.3254 106.868 51.1998C106.566 51.0743 106.243 51.0097 105.916 51.0097C105.589 51.0097 105.265 51.0743 104.964 51.1998C104.662 51.3254 104.388 51.5094 104.158 51.7412L104.061 51.6387C103.997 51.5811 103.94 51.517 103.882 51.4594L104.113 51.2544C104.276 51.1207 104.454 51.0067 104.644 50.9149C104.869 50.8035 105.109 50.7238 105.355 50.6778C105.471 50.6778 105.586 50.6778 105.708 50.6266H106.015H106.259C106.478 50.6501 106.693 50.7017 106.899 50.7803C107.051 50.8341 107.197 50.9028 107.335 50.9853C107.485 51.0695 107.627 51.1682 107.758 51.28L107.95 51.453H107.963Z" fill="white"/>
<path d="M104.734 52.3119L104.446 52.03C104.761 51.706 105.176 51.4982 105.625 51.4407C105.943 51.3924 106.269 51.4201 106.575 51.5214C106.881 51.6227 107.159 51.7947 107.386 52.0236L107.098 52.3119C106.784 52.0001 106.359 51.8251 105.916 51.8251C105.473 51.8251 105.048 52.0001 104.734 52.3119V52.3119Z" fill="white"/>
<path d="M106.79 52.5998L106.502 52.888C106.423 52.8086 106.329 52.7456 106.226 52.7027C106.123 52.6599 106.012 52.6379 105.9 52.6382C105.787 52.6378 105.675 52.6596 105.571 52.7025C105.466 52.7454 105.371 52.8084 105.291 52.888L105.01 52.5998C105.248 52.3688 105.568 52.2397 105.9 52.2397C106.232 52.2397 106.551 52.3688 106.79 52.5998Z" fill="white"/>
<path d="M106.15 53.1701C106.14 53.2319 106.109 53.2882 106.061 53.3289C106.013 53.3695 105.953 53.3919 105.89 53.3919C105.828 53.3919 105.767 53.3695 105.72 53.3289C105.672 53.2882 105.641 53.2319 105.631 53.1701C105.625 53.1326 105.627 53.0943 105.638 53.0578C105.648 53.0213 105.666 52.9874 105.691 52.9586C105.715 52.9297 105.746 52.9066 105.78 52.8907C105.815 52.8748 105.852 52.8666 105.89 52.8666C105.928 52.8666 105.966 52.8748 106 52.8907C106.035 52.9066 106.065 52.9297 106.09 52.9586C106.115 52.9874 106.133 53.0213 106.143 53.0578C106.153 53.0943 106.156 53.1326 106.15 53.1701Z" fill="white"/>
<path d="M90.1729 52.0038C90.1729 51.854 90.2174 51.7076 90.3007 51.5832C90.3841 51.4587 90.5025 51.3619 90.641 51.3048C90.7795 51.2478 90.9318 51.2332 91.0786 51.2629C91.2254 51.2926 91.3601 51.3652 91.4655 51.4716C91.571 51.578 91.6425 51.7133 91.6709 51.8603C91.6994 52.0074 91.6835 52.1595 91.6253 52.2975C91.5671 52.4356 91.4692 52.5532 91.344 52.6354C91.2189 52.7177 91.0721 52.761 90.9224 52.7597C90.723 52.758 90.5324 52.6776 90.392 52.5361C90.2516 52.3945 90.1728 52.2032 90.1729 52.0038V52.0038Z" fill="white"/>
<path d="M92.5364 52.0038C92.5364 51.8543 92.5807 51.7082 92.6638 51.5839C92.7468 51.4596 92.8649 51.3627 93.003 51.3055C93.1411 51.2483 93.2931 51.2333 93.4398 51.2625C93.5864 51.2916 93.7211 51.3636 93.8268 51.4693C93.9325 51.575 94.0045 51.7097 94.0337 51.8564C94.0628 52.003 94.0479 52.155 93.9907 52.2931C93.9334 52.4312 93.8366 52.5493 93.7122 52.6323C93.5879 52.7154 93.4418 52.7597 93.2923 52.7597C93.0918 52.7597 92.8995 52.6801 92.7578 52.5383C92.616 52.3966 92.5364 52.2043 92.5364 52.0038V52.0038Z" fill="white"/>
<path d="M94.9063 52.004C94.9075 51.856 94.9526 51.7117 95.0357 51.5893C95.1188 51.4669 95.2363 51.3718 95.3734 51.3161C95.5104 51.2603 95.6609 51.2464 95.8059 51.2761C95.9509 51.3057 96.0838 51.3776 96.188 51.4826C96.2922 51.5877 96.3629 51.7213 96.3913 51.8665C96.4197 52.0117 96.4045 52.1621 96.3476 52.2987C96.2907 52.4352 96.1946 52.5519 96.0715 52.634C95.9484 52.7161 95.8037 52.7599 95.6558 52.7599C95.5568 52.7599 95.4588 52.7403 95.3675 52.7022C95.2761 52.6641 95.1932 52.6084 95.1235 52.5381C95.0538 52.4678 94.9988 52.3844 94.9615 52.2928C94.9242 52.2011 94.9054 52.1029 94.9063 52.004V52.004Z" fill="white"/>
<path d="M97.2708 52.0038C97.2708 51.854 97.3153 51.7076 97.3986 51.5832C97.482 51.4587 97.6004 51.3619 97.7389 51.3048C97.8774 51.2478 98.0297 51.2332 98.1765 51.2629C98.3233 51.2926 98.458 51.3652 98.5634 51.4716C98.6689 51.578 98.7404 51.7133 98.7688 51.8603C98.7973 52.0074 98.7814 52.1595 98.7232 52.2975C98.665 52.4356 98.5671 52.5532 98.4419 52.6354C98.3168 52.7177 98.17 52.761 98.0203 52.7597C97.8209 52.758 97.6303 52.6776 97.4899 52.5361C97.3495 52.3945 97.2707 52.2032 97.2708 52.0038Z" fill="white"/>
<path d="M99.6345 52.0038C99.6345 51.854 99.679 51.7076 99.7624 51.5832C99.8457 51.4587 99.9642 51.3619 100.103 51.3048C100.241 51.2478 100.393 51.2332 100.54 51.2629C100.687 51.2926 100.822 51.3652 100.927 51.4716C101.033 51.578 101.104 51.7133 101.133 51.8603C101.161 52.0074 101.145 52.1595 101.087 52.2975C101.029 52.4356 100.931 52.5532 100.806 52.6354C100.681 52.7177 100.534 52.761 100.384 52.7597C100.185 52.758 99.994 52.6776 99.8537 52.5361C99.7133 52.3945 99.6345 52.2032 99.6345 52.0038Z" fill="white"/>
<path d="M187.634 53.6507H181.51V50.8064H187.634V53.6507ZM181.83 53.3304H187.314V51.1267H181.83V53.3304Z" fill="white"/>
<path d="M185.962 51.2931H182.022V53.1636H185.962V51.2931Z" fill="white"/>
<path d="M188.179 51.4725H187.634V52.9908H188.179V51.4725Z" fill="white"/>
<path d="M100.006 259.04H99.1415V262.992H97.5336V260.981H94.6829V262.992H93.075V259.04H92.2102L96.1051 255.01L100.006 259.04Z" fill="#EBEBEB"/>
<path d="M186.717 255.01H177.32V256.356H186.717V255.01Z" fill="#EBEBEB"/>
<path d="M186.717 258.329H177.32V259.674H186.717V258.329Z" fill="#EBEBEB"/>
<path d="M186.717 261.653H177.32V262.998H186.717V261.653Z" fill="#EBEBEB"/>
<path d="M142.132 258.47L139.46 261.32L136.789 258.47L137.257 258.028L139.46 260.372L141.664 258.028L142.132 258.47Z" fill="#EBEBEB"/>
<path d="M139.46 264.267C138.5 264.267 137.561 263.982 136.763 263.449C135.964 262.915 135.342 262.157 134.974 261.27C134.607 260.382 134.511 259.406 134.698 258.464C134.885 257.522 135.348 256.657 136.027 255.978C136.706 255.299 137.571 254.836 138.513 254.649C139.455 254.462 140.431 254.558 141.319 254.925C142.206 255.293 142.964 255.915 143.498 256.714C144.031 257.512 144.316 258.451 144.316 259.411C144.315 260.699 143.802 261.933 142.892 262.843C141.982 263.753 140.748 264.265 139.46 264.267V264.267ZM139.46 255.203C138.627 255.203 137.811 255.45 137.118 255.913C136.425 256.377 135.884 257.036 135.566 257.806C135.247 258.577 135.164 259.425 135.327 260.243C135.49 261.06 135.892 261.811 136.482 262.401C137.072 262.99 137.824 263.391 138.642 263.553C139.46 263.715 140.308 263.63 141.078 263.31C141.848 262.99 142.506 262.449 142.968 261.755C143.431 261.061 143.677 260.245 143.676 259.411C143.674 258.295 143.229 257.224 142.439 256.435C141.648 255.646 140.577 255.203 139.46 255.203V255.203Z" fill="#EBEBEB"/>
<path d="M184.706 195.159H183.105V194.519H184.066V193.558H184.706V195.159Z" fill="url(#paint7_linear_4_3)"/>
<path d="M180.612 195.159H178.114V194.518H180.612V195.159ZM175.622 195.159H173.13V194.518H175.622V195.159ZM170.632 195.159H168.14V194.518H170.632V195.159ZM165.648 195.159H163.163V194.518H165.661L165.648 195.159ZM160.658 195.159H158.166V194.518H160.658V195.159ZM155.667 195.159H153.176V194.518H155.667V195.159ZM150.684 195.159H148.185V194.518H150.684V195.159ZM145.693 195.159H143.201V194.518H145.693V195.159ZM140.703 195.159H138.211V194.518H140.703V195.159ZM135.719 195.159H133.221V194.518H135.719V195.159ZM130.729 195.159H128.237V194.518H130.729V195.159ZM125.739 195.159H123.247V194.518H125.739V195.159ZM120.755 195.159H118.256V194.518H120.755V195.159ZM115.764 195.159H113.273V194.518H115.758L115.764 195.159ZM110.774 195.159H108.282V194.518H110.774V195.159ZM105.79 195.159H103.292V194.518H105.79V195.159ZM100.8 195.159H98.3081V194.518H100.8V195.159Z" fill="url(#paint8_linear_4_3)"/>
<path d="M95.8166 195.159H94.2151V193.558H94.8557V194.519H95.8166V195.159Z" fill="url(#paint9_linear_4_3)"/>
<path d="M94.8557 191.008H94.2151V188.446H94.8557V191.008ZM94.8557 185.883H94.2151V183.321H94.8557V185.883ZM94.8557 180.791H94.2151V178.228H94.8557V180.791ZM94.8557 175.666H94.2151V173.103H94.8557V175.666ZM94.8557 170.541H94.2151V167.979H94.8557V170.541ZM94.8557 165.448H94.2151V162.886H94.8557V165.448ZM94.8557 160.323H94.2151V157.761H94.8557V160.323ZM94.8557 155.199H94.2151V152.636H94.8557V155.199ZM94.8557 150.074H94.2151V147.511H94.8557V150.074ZM94.8557 144.981H94.2151V142.419H94.8557V144.981ZM94.8557 139.856H94.2151V137.294H94.8557V139.856ZM94.8557 134.731H94.2151V132.169H94.8557V134.731ZM94.8557 129.639H94.2151V127.076H94.8557V129.639Z" fill="url(#paint10_linear_4_3)"/>
<path d="M94.8557 124.744H94.2151V123.143H95.8166V123.783H94.8557V124.744Z" fill="url(#paint11_linear_4_3)"/>
<path d="M180.612 123.783H178.114V123.143H180.612V123.783ZM175.622 123.783H173.13V123.143H175.622V123.783ZM170.632 123.783H168.14V123.143H170.632V123.783ZM165.648 123.783H163.163V123.143H165.661L165.648 123.783ZM160.658 123.783H158.166V123.143H160.658V123.783ZM155.667 123.783H153.176V123.143H155.667V123.783ZM150.684 123.783H148.185V123.143H150.684V123.783ZM145.693 123.783H143.201V123.143H145.693V123.783ZM140.703 123.783H138.211V123.143H140.703V123.783ZM135.719 123.783H133.221V123.143H135.719V123.783ZM130.729 123.783H128.237V123.143H130.729V123.783ZM125.739 123.783H123.247V123.143H125.739V123.783ZM120.755 123.783H118.256V123.143H120.755V123.783ZM115.764 123.783H113.273V123.143H115.758L115.764 123.783ZM110.774 123.783H108.282V123.143H110.774V123.783ZM105.79 123.783H103.292V123.143H105.79V123.783ZM100.8 123.783H98.3081V123.143H100.8V123.783Z" fill="url(#paint12_linear_4_3)"/>
<path d="M184.706 124.744H184.066V123.783H183.105V123.143H184.706V124.744Z" fill="url(#paint13_linear_4_3)"/>
<path d="M184.706 191.008H184.065V188.446H184.706V191.008ZM184.706 185.883H184.065V183.321H184.706V185.883ZM184.706 180.791H184.065V178.228H184.706V180.791ZM184.706 175.666H184.065V173.103H184.706V175.666ZM184.706 170.541H184.065V167.979H184.706V170.541ZM184.706 165.448H184.065V162.886H184.706V165.448ZM184.706 160.323H184.065V157.761H184.706V160.323ZM184.706 155.199H184.065V152.636H184.706V155.199ZM184.706 150.074H184.065V147.511H184.706V150.074ZM184.706 144.981H184.065V142.419H184.706V144.981ZM184.706 139.856H184.065V137.294H184.706V139.856ZM184.706 134.731H184.065V132.169H184.706V134.731ZM184.706 129.639H184.065V127.076H184.706V129.639Z" fill="url(#paint14_linear_4_3)"/>
<path d="M143.861 165.653H135.053V176.896H143.861V165.653Z" fill="white"/>
<path d="M179.242 210.841H99.6729V215.863H179.242V210.841Z" fill="#EBEBEB"/>
<path d="M126.38 211.731H100.64V214.986H126.38V211.731Z" fill="url(#paint15_linear_4_3)"/>
<path opacity="0.1" d="M105.823 211.731H103.152L100.64 214.979H103.312L105.823 211.731Z" fill="black"/>
<path opacity="0.1" d="M110.966 211.731H108.302L105.784 214.979H108.449L110.966 211.731Z" fill="black"/>
<path opacity="0.1" d="M116.117 211.731H113.445L110.934 214.979H113.599L116.117 211.731Z" fill="black"/>
<path opacity="0.1" d="M121.261 211.731H118.59L116.079 214.979H118.744L121.261 211.731Z" fill="black"/>
<path opacity="0.1" d="M126.405 211.731H123.74L121.223 214.979H123.888L126.405 211.731Z" fill="black"/>
<path opacity="0.1" d="M152.125 214.98V214.948L152.099 214.98H152.125Z" fill="black"/>
<path d="M213.264 97.5186L211.733 99.0369L210.869 99.9337C208.936 97.9945 206.64 96.4558 204.112 95.4059C201.583 94.356 198.873 93.8156 196.135 93.8156C193.397 93.8156 190.686 94.356 188.158 95.4059C185.63 96.4558 183.333 97.9945 181.401 99.9337C181.132 99.6518 180.857 99.3572 180.575 99.0753C180.075 98.5628 179.575 98.0631 179.069 97.5571H179.024V97.5186L179.133 97.4289C179.774 96.8524 180.415 96.2631 181.055 95.7121C182.434 94.5925 183.939 93.638 185.539 92.8679C187.412 91.9315 189.407 91.2609 191.465 90.8756C192.445 90.6962 193.438 90.6002 194.424 90.4784C194.764 90.44 196.948 90.4336 197.019 90.4336C197.692 90.4848 198.364 90.5169 199.037 90.5873C200.895 90.7924 202.721 91.2226 204.475 91.8685C205.747 92.3373 206.977 92.9115 208.153 93.5853C209.394 94.2981 210.569 95.1214 211.663 96.0453C212.208 96.5193 212.739 97.0126 213.277 97.4994L213.264 97.5186Z" fill="url(#paint16_linear_4_3)"/>
<path d="M186.225 104.713L183.803 102.31C186.452 99.6204 189.916 97.8836 193.656 97.3713C199.37 96.5961 204.277 98.3322 208.441 102.272L206.013 104.687C204.716 103.388 203.175 102.358 201.479 101.655C199.783 100.951 197.965 100.59 196.129 100.59C194.293 100.59 192.475 100.951 190.779 101.655C189.083 102.358 187.542 103.388 186.244 104.687L186.225 104.713Z" fill="url(#paint17_linear_4_3)"/>
<path d="M203.597 107.121L201.195 109.542C200.532 108.874 199.743 108.344 198.874 107.982C198.005 107.62 197.073 107.434 196.131 107.434C195.19 107.434 194.258 107.62 193.389 107.982C192.52 108.344 191.731 108.874 191.067 109.542L188.665 107.14C189.64 106.15 190.801 105.364 192.082 104.827C193.363 104.29 194.738 104.012 196.127 104.01C197.516 104.008 198.892 104.282 200.174 104.816C201.457 105.35 202.62 106.134 203.597 107.121V107.121Z" fill="url(#paint18_linear_4_3)"/>
<path d="M198.3 111.708C198.3 112.138 198.172 112.557 197.934 112.915C197.695 113.272 197.356 113.55 196.959 113.714C196.562 113.879 196.126 113.922 195.704 113.838C195.283 113.754 194.896 113.547 194.592 113.244C194.289 112.94 194.082 112.553 193.998 112.132C193.914 111.71 193.957 111.274 194.122 110.877C194.286 110.48 194.564 110.141 194.921 109.902C195.279 109.664 195.698 109.536 196.128 109.536C196.704 109.536 197.256 109.765 197.664 110.172C198.071 110.58 198.3 111.132 198.3 111.708Z" fill="url(#paint19_linear_4_3)"/>
<path d="M66.2592 253.069C66.2592 253.069 64.3374 279.385 64.3374 279.398C64.3374 284.555 64.3822 289.071 64.6321 291.409C64.6296 291.42 64.6296 291.431 64.6321 291.441C64.6331 291.994 64.7602 292.54 65.0036 293.037L65.0357 293.069C66.5667 294.119 107.738 295.528 109.192 295.093C110.646 294.657 109.519 290.487 107.962 289.154C106.406 287.822 90.8839 280.237 90.8839 280.237L92.5238 253.934L66.2592 253.069Z" fill="#774442"/>
<path d="M109.224 295.093C107.77 295.529 66.5982 294.119 65.0672 293.069L65.0352 293.037C64.7925 292.542 64.6654 291.999 64.6636 291.448C64.6606 291.435 64.6606 291.422 64.6636 291.41C64.4138 289.071 64.3433 284.555 64.369 279.405C64.369 279.405 64.6957 274.837 65.08 269.514L91.5112 270.75L90.9218 280.238C90.9218 280.238 106.437 287.829 108 289.155C109.563 290.481 110.678 294.677 109.224 295.093Z" fill="#EBEBEB"/>
<path d="M109.404 295.164C107.93 295.593 66.1118 294.434 64.5616 293.37C63.9722 292.967 63.8377 278.944 64.6769 271.84L91.6077 272.897C91.6077 272.897 91.5693 280.123 91.896 280.289C94.5417 281.641 106.771 287.925 108.18 289.136C109.75 290.481 110.883 294.728 109.404 295.164Z" fill="url(#paint20_linear_4_3)"/>
<path d="M108.871 293.466C101.87 293.03 73.6064 291.928 66.6495 292.025C66.5983 292.025 66.5919 292.069 66.6495 292.069C73.5808 292.659 101.883 293.53 108.865 293.581C109.012 293.581 109.019 293.472 108.871 293.466Z" fill="#263238"/>
<path d="M105.547 287.521C104.769 287.472 103.99 287.584 103.257 287.851C102.525 288.117 101.856 288.533 101.293 289.071C100.273 290.035 99.6625 291.354 99.5891 292.755C99.5891 292.793 99.666 292.8 99.6724 292.755C99.9662 291.381 100.697 290.138 101.756 289.215C102.815 288.291 104.145 287.735 105.547 287.63C105.561 287.63 105.575 287.624 105.585 287.614C105.595 287.604 105.601 287.59 105.601 287.576C105.601 287.561 105.595 287.547 105.585 287.537C105.575 287.527 105.561 287.521 105.547 287.521V287.521Z" fill="#263238"/>
<path d="M93.5617 280.814C90.7623 280.667 87.4696 281.532 85.6439 283.761C85.5734 283.844 85.6951 283.947 85.7784 283.908C88.2801 282.716 90.9023 281.795 93.6002 281.16C93.6377 281.146 93.6695 281.12 93.6905 281.086C93.7114 281.052 93.7205 281.012 93.716 280.972C93.7116 280.932 93.694 280.895 93.6661 280.867C93.6381 280.838 93.6014 280.82 93.5617 280.814Z" fill="#263238"/>
<path d="M95.6948 281.736C92.8954 281.589 89.6027 282.46 87.777 284.683C87.7065 284.773 87.8282 284.869 87.9115 284.83C90.411 283.638 93.031 282.716 95.7268 282.082C95.7727 282.078 95.815 282.056 95.8444 282.02C95.8739 281.985 95.888 281.939 95.8838 281.893C95.8795 281.847 95.8572 281.805 95.8218 281.776C95.7863 281.746 95.7406 281.732 95.6948 281.736Z" fill="#263238"/>
<path d="M97.8217 282.665C95.0159 282.518 91.7296 283.383 89.9039 285.612C89.8334 285.696 89.9552 285.798 90.0384 285.76C92.5375 284.566 95.1577 283.645 97.8538 283.011C97.8996 283.007 97.9419 282.985 97.9714 282.949C98.0008 282.914 98.015 282.868 98.0107 282.822C98.0065 282.777 97.9842 282.734 97.9487 282.705C97.9133 282.675 97.8676 282.661 97.8217 282.665V282.665Z" fill="#263238"/>
<path d="M99.9612 283.588C97.1554 283.441 93.8691 284.312 92.0434 286.535C91.9665 286.624 92.0947 286.721 92.1779 286.682C94.677 285.489 97.2972 284.567 99.9933 283.934C100.039 283.93 100.081 283.907 100.111 283.872C100.14 283.837 100.154 283.791 100.15 283.745C100.146 283.699 100.124 283.657 100.088 283.627C100.053 283.598 100.007 283.584 99.9612 283.588V283.588Z" fill="#263238"/>
<path d="M68.9945 274.6C65.8492 274.491 65.6762 279.379 68.8279 279.488C71.9797 279.597 72.1975 274.709 68.9945 274.6Z" fill="#263238"/>
<path d="M96.873 273.447C95.5022 272.217 93.67 273.293 92.7476 274.485C92.322 275.04 91.9428 275.629 91.6137 276.246C90.8469 277.675 90.3127 279.217 90.0314 280.814C90.007 280.934 89.9921 281.056 89.9866 281.179C89.9775 281.193 89.9726 281.21 89.9726 281.227C89.9726 281.244 89.9775 281.261 89.9866 281.275C89.9639 281.37 89.9467 281.466 89.9353 281.563C89.935 281.575 89.9374 281.587 89.9424 281.598C89.9474 281.609 89.9548 281.618 89.9641 281.626C89.9735 281.633 89.9844 281.639 89.9961 281.641C90.0078 281.644 90.0199 281.643 90.0314 281.64C90.0443 281.708 90.0766 281.771 90.1243 281.821C90.1721 281.871 90.2332 281.906 90.3005 281.922C90.3349 281.937 90.3719 281.945 90.4094 281.945C90.4468 281.945 90.4839 281.937 90.5183 281.922C91.082 281.563 91.6778 281.205 92.2671 280.852L92.581 280.66C94.0485 279.853 95.373 278.81 96.5015 277.572C97.424 276.439 98.1735 274.607 96.873 273.447ZM93.2152 279.302C92.754 279.61 92.2927 279.904 91.8315 280.199C91.3703 280.494 90.9539 280.769 90.5503 281.077C90.5004 281.106 90.4532 281.141 90.4094 281.179L90.2556 281.282L90.3133 281.128C90.3133 281.128 90.3133 281.128 90.3133 281.096C90.7489 280.007 91.1525 278.892 91.6714 277.829C91.761 277.617 91.87 277.406 91.9789 277.188C92.2993 276.547 92.6632 275.928 93.0679 275.337C93.7085 274.434 96.5591 272.185 96.7193 275.247C96.8026 276.913 94.3875 278.482 93.2152 279.302Z" fill="#263238"/>
<path d="M90.5378 281.422C90.5762 281.384 90.589 281.339 90.5378 281.301C90.4877 281.246 90.4342 281.195 90.3776 281.147L90.32 281.089L90.0445 280.84C88.2809 279.302 86.1777 278.204 83.9076 277.637C82.447 277.291 80.3458 277.637 80.064 279.43C79.7821 281.224 81.5245 282.102 82.9467 282.371C84.3833 282.598 85.8469 282.598 87.2835 282.371C88.3021 282.242 89.3206 282.076 90.3072 281.961C90.3649 281.951 90.4194 281.928 90.4656 281.892C90.5117 281.856 90.548 281.809 90.571 281.755C90.594 281.701 90.6031 281.643 90.5973 281.585C90.5915 281.526 90.571 281.471 90.5378 281.422ZM86.5597 281.602C85.1503 281.736 82.2869 282.037 81.2875 280.679C79.4874 278.194 83.1004 278.117 84.1702 278.431C84.8614 278.634 85.5377 278.884 86.1945 279.18C87.4902 279.776 88.752 280.444 89.9741 281.179V281.179L90.1086 281.256C90.0597 281.25 90.0102 281.25 89.9612 281.256C89.8203 281.256 89.6794 281.256 89.5385 281.256C88.5519 281.378 87.5718 281.506 86.5597 281.602Z" fill="#263238"/>
<path d="M64.3183 267.989L93.786 269.2C93.786 269.2 95.144 228.099 94.4906 210.809C93.7796 192.026 85.7144 136.147 85.7144 136.147H61.3716C61.3716 136.147 67.5918 192.244 67.7263 211.033C67.816 228.451 64.3183 267.989 64.3183 267.989Z" fill="#37474F"/>
<path d="M80.8966 136.147L66.2781 186.754C64.5485 162.815 61.3391 136.147 61.3391 136.147H80.8966Z" fill="#263238"/>
<path d="M65.958 138.902L67.5083 155.557L68.9368 172.245C69.8529 183.379 70.7241 194.512 71.3839 205.665C71.5505 208.458 71.6465 211.258 71.6081 214.057C71.5697 216.856 71.4351 219.649 71.2942 222.436C71.0038 228.022 70.6451 233.597 70.218 239.162C69.7952 244.729 68.2386 261.128 68.2386 261.128C68.2386 261.128 69.366 244.697 69.7311 239.13C70.0963 233.563 70.4614 227.984 70.7177 222.41C70.8522 219.624 70.9547 216.837 70.9995 214.051C71.0444 211.264 70.9227 208.49 70.7561 205.723C70.1475 194.576 69.2635 183.443 68.4564 172.303L65.958 138.902Z" fill="#263238"/>
<path d="M92.8315 263.678C88.3473 263.371 89.6285 263.396 85.1443 263.14C82.9471 263.018 68.4887 262.211 66.426 262.455C66.3811 262.455 66.3747 262.538 66.426 262.544C68.4631 262.98 82.9214 263.537 85.1251 263.62C89.6093 263.787 88.3281 263.691 92.8123 263.806C92.8207 263.807 92.8293 263.807 92.8375 263.805C92.8458 263.803 92.8536 263.799 92.8604 263.794C92.8673 263.789 92.873 263.783 92.8774 263.776C92.8818 263.768 92.8847 263.76 92.886 263.752C92.8872 263.743 92.8868 263.735 92.8848 263.726C92.8827 263.718 92.8791 263.71 92.874 263.704C92.8689 263.697 92.8626 263.691 92.8553 263.687C92.848 263.682 92.8399 263.679 92.8315 263.678V263.678Z" fill="#263238"/>
<path d="M19.4956 238.15L6.04297 260.878C3.724 265.478 1.77017 269.552 0.956607 271.769C0.956607 271.769 0.956607 271.769 0.956607 271.807C0.707942 272.3 0.57848 272.844 0.578652 273.396C0.575254 273.403 0.573486 273.41 0.573486 273.418C0.573486 273.426 0.575254 273.434 0.578652 273.441C1.47549 275.061 37.7335 294.67 39.2004 294.926C40.6674 295.183 41.5515 290.948 40.7507 289.065C39.95 287.181 29.4313 273.466 29.4313 273.466L42.6213 250.654L19.4956 238.15Z" fill="#774442"/>
<path d="M39.2319 294.914C37.7329 294.658 1.50692 275.055 0.603678 273.428C0.599881 273.414 0.599881 273.398 0.603678 273.383C0.60386 272.832 0.730996 272.289 0.975225 271.795C0.972447 271.782 0.972447 271.769 0.975225 271.756C1.79519 269.553 3.74262 265.478 6.06159 260.866L11.1031 252.327L34.216 265.209L29.4627 273.441C29.4627 273.441 39.9686 287.15 40.7757 289.033C41.5829 290.917 40.7245 295.177 39.2319 294.914Z" fill="#EBEBEB"/>
<path d="M39.3667 295.054C37.8484 294.785 0.930628 275.112 0.0145695 273.466C-0.337761 272.825 5.77997 260.231 9.70685 254.248L33.3514 267.195C33.3514 267.195 30.0972 273.639 30.315 273.934C32.083 276.323 40.2315 287.386 40.9553 289.11C41.7561 291.019 40.8785 295.317 39.3667 295.054Z" fill="url(#paint21_linear_4_3)"/>
<path d="M39.6358 293.299C33.5693 289.789 8.75246 276.208 2.48098 273.197C2.42973 273.197 2.41052 273.197 2.48098 273.236C8.42575 276.849 33.3515 290.231 39.6358 293.402C39.7127 293.466 39.7639 293.395 39.6358 293.299Z" fill="#263238"/>
<path d="M39.316 286.496C38.6434 286.108 37.8981 285.863 37.1266 285.776C36.3551 285.689 35.5739 285.762 34.8318 285.99C33.4868 286.406 32.3536 287.323 31.6672 288.552C31.6672 288.591 31.7121 288.629 31.7377 288.591C32.6117 287.486 33.8207 286.696 35.1827 286.338C36.5447 285.979 37.9862 286.073 39.2904 286.605C39.3048 286.608 39.32 286.606 39.3326 286.598C39.3452 286.59 39.3542 286.578 39.3576 286.563C39.361 286.549 39.3586 286.534 39.3508 286.521C39.3429 286.508 39.3304 286.499 39.316 286.496V286.496Z" fill="#263238"/>
<path d="M31.5709 275.152C29.1302 273.774 25.8054 273.082 23.1726 274.261C23.0701 274.306 23.1341 274.453 23.2302 274.453C25.998 274.494 28.7534 274.831 31.4491 275.459C31.486 275.462 31.5229 275.453 31.5543 275.433C31.5857 275.414 31.61 275.385 31.6236 275.35C31.6373 275.316 31.6395 275.278 31.63 275.242C31.6205 275.206 31.5998 275.175 31.5709 275.152V275.152Z" fill="#263238"/>
<path d="M33.0697 276.932C30.629 275.549 27.3043 274.863 24.665 276.042C24.5625 276.087 24.665 276.228 24.7227 276.234C27.493 276.278 30.2506 276.619 32.948 277.253C32.9887 277.262 33.0314 277.256 33.0682 277.236C33.105 277.217 33.1335 277.184 33.1483 277.145C33.1631 277.106 33.1633 277.063 33.1489 277.024C33.1344 276.985 33.1063 276.952 33.0697 276.932V276.932Z" fill="#263238"/>
<path d="M34.5682 278.706C32.1211 277.329 28.8028 276.637 26.1635 277.816C26.061 277.867 26.1251 278.008 26.2212 278.008C28.9894 278.058 31.7445 278.401 34.4401 279.033C34.4807 279.04 34.5223 279.032 34.558 279.012C34.5938 278.992 34.6215 278.96 34.6365 278.922C34.6515 278.883 34.6529 278.841 34.6405 278.802C34.6281 278.763 34.6025 278.729 34.5682 278.706V278.706Z" fill="#263238"/>
<path d="M36.0611 280.487C33.6204 279.11 30.2956 278.418 27.6564 279.597C27.5603 279.642 27.6564 279.789 27.7204 279.789C30.4889 279.836 33.2443 280.179 35.9393 280.814C35.9827 280.83 36.0306 280.829 36.0727 280.809C36.1147 280.79 36.1474 280.755 36.1635 280.712C36.1797 280.668 36.178 280.62 36.1587 280.578C36.1395 280.536 36.1044 280.504 36.0611 280.487V280.487Z" fill="#263238"/>
<path d="M12.3717 258.655C9.60428 257.156 7.24687 261.455 10.0399 262.954C12.8329 264.453 15.1455 260.154 12.3717 258.655Z" fill="#263238"/>
<path d="M37.8161 270.033C37.137 268.316 35.0166 268.47 33.665 269.123C33.0286 269.432 32.4181 269.792 31.8393 270.199C30.5138 271.134 29.3478 272.276 28.3864 273.582C28.3102 273.676 28.2416 273.777 28.1814 273.883C28.167 273.892 28.1548 273.904 28.1459 273.918C28.137 273.933 28.1316 273.949 28.1302 273.966C28.0806 274.033 28.0357 274.104 27.9957 274.177C27.9891 274.187 27.985 274.198 27.9838 274.21C27.9826 274.221 27.9843 274.233 27.9887 274.244C27.9932 274.255 28.0002 274.264 28.0093 274.272C28.0183 274.279 28.029 274.284 28.0405 274.286C28.0235 274.353 28.0259 274.424 28.0474 274.49C28.069 274.556 28.1088 274.614 28.1622 274.658C28.1889 274.684 28.2212 274.704 28.2567 274.717C28.2922 274.729 28.3299 274.733 28.3672 274.728C29.0078 274.658 29.7253 274.6 30.4107 274.549H30.7759C32.4555 274.479 34.1127 274.137 35.6829 273.537C36.9641 272.954 38.4695 271.647 37.8161 270.033ZM31.9482 273.614L30.3146 273.806C29.7893 273.864 29.2705 273.921 28.758 274.011C28.7005 274.005 28.6425 274.005 28.585 274.011H28.3992C28.4428 273.976 28.4836 273.937 28.5209 273.896V273.896C29.3986 273.114 30.2506 272.294 31.1923 271.577C31.3652 271.423 31.5574 271.282 31.7496 271.141C32.3232 270.711 32.9246 270.32 33.5497 269.969C34.5298 269.456 38.0787 268.688 36.8552 271.519C36.2082 273.108 33.3511 273.434 31.9482 273.614V273.614Z" fill="#263238"/>
<path d="M28.5986 274.35C28.6499 274.35 28.6755 274.299 28.6627 274.248L28.5858 274.036V273.96C28.5892 273.949 28.5892 273.938 28.5858 273.927L28.4513 273.582C27.5606 271.414 26.1687 269.489 24.3899 267.963C23.2368 267.003 21.1869 266.356 20.1427 267.855C19.0985 269.354 20.2644 270.897 21.4239 271.769C22.6116 272.609 23.9237 273.257 25.3124 273.69C26.2797 274.03 27.2342 274.331 28.2015 274.664C28.2484 274.671 28.2963 274.669 28.3422 274.657C28.3882 274.645 28.4311 274.623 28.4683 274.594C28.5056 274.564 28.5364 274.527 28.5588 274.486C28.5812 274.444 28.5948 274.398 28.5986 274.35ZM24.9536 272.736C23.6276 272.223 20.9306 271.224 20.6424 269.533C20.1427 266.509 23.4034 268.066 24.2297 268.809C24.7549 269.299 25.2471 269.824 25.7031 270.379C26.5982 271.492 27.4322 272.653 28.2015 273.857V273.857C28.2276 273.904 28.2576 273.949 28.2911 273.992L28.1502 273.94C28.0228 273.878 27.8924 273.823 27.7594 273.774C26.837 273.428 25.8953 273.101 24.9536 272.736Z" fill="#263238"/>
<path d="M83.1898 136.121C83.0809 136.621 81.3834 144.519 79.6153 151.303C78.3341 156.255 77.0145 160.611 76.2585 161.066C75.4001 161.572 71.217 163.423 69.8205 164.006C69.8205 164.006 60.4165 210.93 55.4583 225.504C50.878 238.957 37.9378 264.581 37.9378 264.581L11.2056 249.834C11.2056 249.834 25.9009 224.53 28.1559 217.99C31.6535 207.862 44.7666 158.414 44.7666 158.414C44.7666 158.414 44.6641 142.931 49.8914 136.166L83.1898 136.121Z" fill="#37474F"/>
<path d="M39.0785 258.476C35.1516 256.279 36.3239 256.881 32.3585 254.703C30.4367 253.653 17.7016 246.747 15.7029 246.087C15.6581 246.087 15.6197 246.138 15.6581 246.164C17.3173 247.445 30.1485 254.114 32.1023 255.132C36.0997 257.208 34.9722 256.567 38.9888 258.598C39.0049 258.61 39.0251 258.615 39.0449 258.612C39.0648 258.609 39.0826 258.598 39.0945 258.582C39.1064 258.566 39.1114 258.546 39.1083 258.526C39.1053 258.506 39.0946 258.488 39.0785 258.476V258.476Z" fill="#263238"/>
<path d="M51.8199 154.065C52.5758 153.873 53.3766 153.809 54.1453 153.687C54.7859 153.591 55.3881 153.482 55.9966 153.348C57.1742 153.136 58.29 152.666 59.2637 151.971C60.3271 151.144 60.8716 149.889 61.3841 148.678C61.6916 147.96 62.0247 147.249 62.3258 146.538C62.4795 146.199 62.6333 145.853 62.7934 145.513C63.0097 145.11 63.2043 144.695 63.3764 144.27C63.3764 144.213 63.4917 144.27 63.466 144.27C63.3612 144.562 63.2735 144.859 63.2034 145.161C63.1009 145.507 63.0048 145.853 62.8959 146.199C62.7037 146.839 62.518 147.429 62.3194 148.044C62.0098 149.159 61.5689 150.235 61.0061 151.247C59.8723 153.053 57.8416 153.809 55.8109 154.04C55.2343 154.11 54.645 154.155 54.062 154.187C53.3246 154.251 52.583 154.251 51.8456 154.187C51.7367 154.251 51.6982 154.097 51.8199 154.065Z" fill="#263238"/>
<path d="M78.4752 159.984C75.4914 161.066 72.6083 162.408 69.8591 163.994C69.7502 164.052 69.8207 164.225 69.936 164.173C72.8443 162.924 75.8039 161.733 78.6289 160.33C78.6664 160.305 78.6939 160.267 78.7063 160.224C78.7188 160.18 78.7156 160.134 78.6973 160.092C78.6789 160.051 78.6466 160.018 78.606 159.998C78.5654 159.978 78.5191 159.973 78.4752 159.984V159.984Z" fill="#263238"/>
<path d="M79.3468 140.099C79.3468 139.997 79.1675 139.978 79.1675 140.099C79.1675 143.546 78.9689 146.576 78.6806 149.798C78.5461 151.291 77.3418 159.555 74.7473 158.952C74.3181 158.85 74.1067 158.427 74.0234 157.767C74.0377 156.913 74.1539 156.064 74.3694 155.237C74.6576 153.507 74.8883 151.771 75.01 150.022C75.3154 146.769 75.2811 143.493 74.9075 140.247C74.9075 140.225 74.8987 140.204 74.8831 140.188C74.8675 140.172 74.8463 140.164 74.8242 140.164C74.8021 140.164 74.7809 140.172 74.7653 140.188C74.7497 140.204 74.7409 140.225 74.7409 140.247C74.825 144.759 74.568 149.271 73.9722 153.744C73.6519 155.897 72.5693 159.132 74.8178 159.458C77.0663 159.785 78.5845 154.378 78.8664 152.892C79.5808 148.667 79.7423 144.367 79.3468 140.099V140.099Z" fill="#263238"/>
<path d="M74.8176 159.164C74.5842 159.72 74.3894 160.292 74.2347 160.875C74.0681 161.325 73.9856 161.803 73.9912 162.284C73.9912 162.374 74.1258 162.38 74.1706 162.322C74.4421 161.9 74.6453 161.437 74.7728 160.951C74.9714 160.42 75.1828 159.894 75.3621 159.363C75.3752 159.327 75.381 159.289 75.3794 159.251C75.3778 159.213 75.3687 159.176 75.3526 159.141C75.3365 159.107 75.3138 159.076 75.2858 159.05C75.2578 159.024 75.2249 159.004 75.1892 158.991C75.1534 158.978 75.1154 158.972 75.0774 158.974C75.0394 158.976 75.0021 158.985 74.9676 159.001C74.9331 159.017 74.9021 159.039 74.8763 159.068C74.8506 159.096 74.8306 159.128 74.8176 159.164Z" fill="#263238"/>
<path d="M17.8615 246.132C21.7756 238.765 27.9254 227.266 29.828 223.621C31.621 220.011 33.077 216.243 34.1776 212.366C36.5991 204.499 38.8925 196.598 41.0577 188.663C43.2229 180.728 45.2558 172.751 47.1562 164.731C47.6367 162.732 48.1555 160.727 48.5399 158.703C48.8858 156.661 48.8858 154.575 48.5399 152.534C48.2446 150.624 48.2295 148.682 48.4951 146.768C48.8022 144.866 49.2519 142.991 49.8403 141.156C50.1414 140.189 50.4809 139.235 50.8012 138.267C50.8397 138.165 51.0062 138.21 50.9742 138.319C49.7891 142.201 48.5783 146.121 48.8282 150.227C48.9499 152.2 49.4688 154.141 49.4688 156.127C49.3379 158.1 49.003 160.053 48.4694 161.957C46.5989 170.016 44.5917 178.04 42.4478 186.031C40.3039 194.021 38.0234 201.973 35.6062 209.886C34.4403 213.73 33.3513 217.651 31.6921 221.321C30.0329 224.992 23.7679 236.266 19.5591 243.428C19.0296 244.347 18.4936 245.256 17.9512 246.157C17.9192 246.247 17.8295 246.189 17.8615 246.132Z" fill="#263238"/>
<path d="M69.9871 94.9948C78.379 99.6007 92.6772 108.108 98.4811 108.78C102.965 109.306 124.035 95.3279 130.389 89.8572C132.311 88.1852 121.389 76.1739 119.166 77.769C113.036 82.1892 96.4439 92.5925 95.7009 92.727C92.9591 93.2075 81.9728 90.1646 72.2036 88.3069C61.307 86.2121 65.9193 92.7655 69.9871 94.9948Z" fill="#774442"/>
<path d="M85.2402 104.553L91.8768 92.2467C91.8768 92.2467 75.4582 87.1218 68.0529 87.7624C60.6475 88.403 65.2278 92.3363 68.9817 94.918C72.7356 97.4996 85.2402 104.553 85.2402 104.553Z" fill="#C7C7C7"/>
<path d="M85.2402 104.553L91.8768 92.2467C91.8768 92.2467 75.4582 87.1218 68.0529 87.7624C60.6475 88.403 65.2278 92.3363 68.9817 94.918C72.7356 97.4996 85.2402 104.553 85.2402 104.553Z" fill="url(#paint22_linear_4_3)"/>
<path d="M91.8638 92.2468L91.8062 92.3493C91.6524 92.2789 91.4987 92.2148 91.3385 92.1571C91.1063 92.0553 90.869 91.9655 90.6275 91.8881L89.9036 91.6575C89.6602 91.587 89.4103 91.5422 89.1605 91.4845L88.7889 91.3948L88.411 91.3436C86.3978 91.0358 84.341 91.1891 82.3958 91.792C80.4585 92.41 78.6074 93.271 76.8866 94.3544C75.5221 95.1744 74.2153 96.0712 72.9085 96.9745L72.7099 97.109L72.5753 97.1987L72.3255 97.0449C72.3768 97.0449 72.4216 96.9809 72.4728 96.9488L72.6714 96.8143C74.0103 95.8983 75.3556 94.9758 76.7585 94.143C78.5002 93.0521 80.3756 92.1908 82.3381 91.5806C84.2572 91.0125 86.2769 90.8682 88.2573 91.1578C89.9548 91.6255 91.1848 91.9906 91.6588 92.1379L91.8638 92.2468ZM87.4757 99.7931C85.6692 100.376 83.9204 101.074 82.1651 101.798L81.1146 102.208L81.422 102.381L82.2676 102.048C84.0229 101.343 85.7653 100.613 87.5526 100.024L87.7063 99.9725L87.8665 99.6714L87.4757 99.7931ZM72.9085 96.9745L72.6714 96.8143C72.0457 96.3797 71.3563 96.0447 70.6279 95.8214L70.1731 95.7125L70.8137 96.1161C71.4002 96.3261 71.9594 96.6056 72.4793 96.9488L72.7163 97.109C72.8828 97.2243 73.0494 97.346 73.2095 97.4741C73.3697 97.6023 73.517 97.7176 73.6644 97.8521L74.5356 98.371C74.1599 97.9911 73.762 97.6339 73.3441 97.3012C73.1967 97.1795 73.0558 97.0706 72.9085 96.9681V96.9745Z" fill="white"/>
<path d="M82.8061 102.58C83.5748 100.78 84.5805 99.0563 85.5094 97.3331C86.4383 95.6099 87.5401 93.8675 88.5266 92.125C88.5266 92.0738 88.6419 92.125 88.6163 92.1699C87.7195 93.9251 86.8995 95.7124 85.9322 97.4292C84.9998 99.2092 83.9712 100.937 82.8509 102.605C82.8509 102.605 82.7932 102.605 82.8061 102.58Z" fill="#263238"/>
<path opacity="0.1" d="M88.6477 98.2236L85.2397 104.553C85.2397 104.553 72.7351 97.5061 68.9812 94.9437C66.6943 93.3678 64.0999 91.2859 64.0999 89.7612L88.6477 98.2236Z" fill="black"/>
<path d="M45.875 140.971C45.9775 141.08 85.9125 140.375 86.2904 139.933C86.8157 139.293 81.2361 102.087 75.5988 92.1572C72.9083 87.404 65.535 84.88 61.2366 92.2341C50.9741 109.825 45.5226 140.58 45.875 140.971Z" fill="url(#paint23_linear_4_3)"/>
<path d="M86.252 138.581C86.0662 138.581 85.8741 138.581 85.6883 138.581H85.3039H84.9196C84.6633 138.581 84.4071 138.581 84.1508 138.543L83.3885 138.447C83.1342 138.41 82.8819 138.361 82.6326 138.299C82.1301 138.198 81.6339 138.067 81.1464 137.909C80.666 137.729 80.1855 137.569 79.7179 137.345C79.2503 137.121 78.8018 136.896 78.3406 136.666C77.8794 136.435 77.4566 136.16 77.0594 135.871C76.6622 135.583 76.2138 135.295 75.7782 135C75.3426 134.706 74.9582 134.36 74.5611 134.065C74.1639 133.77 73.645 133.309 73.1966 132.912C73.1401 132.866 73.0866 132.817 73.0364 132.764C72.0051 131.861 71.0121 130.907 70.0192 129.952C68.5458 128.543 67.0853 127.108 65.4838 125.852C64.6919 125.221 63.8451 124.661 62.9534 124.18C62.774 124.084 62.5882 123.995 62.4025 123.918C62.3179 123.873 62.2301 123.834 62.1398 123.802C61.4879 123.524 60.8 123.338 60.0963 123.252C59.8465 123.252 59.5966 123.213 59.3468 123.207H58.5845C58.3305 123.194 58.0761 123.194 57.8222 123.207L57.0663 123.284L56.6883 123.328L56.3168 123.392L55.5416 123.636C55.0548 123.777 54.5551 123.879 54.0811 124.065C53.8697 124.136 53.6519 124.219 53.4405 124.302C53.3439 124.334 53.2497 124.372 53.1586 124.417C52.518 124.68 51.8774 124.988 51.288 125.301C50.436 125.731 49.5776 126.16 48.6808 126.512L48.7192 126.352C49.5712 126.006 50.3912 125.583 51.2176 125.161C51.7877 124.866 52.3578 124.578 52.9472 124.328L53.2163 124.206C53.4789 124.091 53.7479 123.988 54.017 123.899C54.4975 123.706 54.9971 123.597 55.4904 123.45L56.2463 123.303L56.6242 123.232L57.0086 123.188L57.7709 123.098C58.0272 123.098 58.2834 123.098 58.5396 123.059H59.3084C59.571 123.059 59.8272 123.059 60.0899 123.098C60.8473 123.189 61.5875 123.389 62.2872 123.694L62.537 123.815C62.7035 123.886 62.8637 123.969 63.0238 124.052C63.9276 124.547 64.7851 125.121 65.5862 125.769C67.1941 127.05 68.6419 128.498 70.1025 129.92C71.121 130.913 72.1396 131.9 73.1966 132.841L73.3567 132.989C73.7667 133.354 74.1831 133.713 74.6059 134.058C75.3871 134.714 76.2087 135.319 77.0658 135.871C77.4886 136.153 77.937 136.397 78.347 136.659C78.757 136.922 79.2503 137.133 79.7243 137.3C80.1983 137.466 80.666 137.671 81.1464 137.844C81.6306 137.998 82.1224 138.126 82.6198 138.229C82.8696 138.267 83.1131 138.338 83.3693 138.363L84.1252 138.453C84.3751 138.453 84.6313 138.453 84.8875 138.491H85.2655H85.6499C85.8356 138.491 86.015 138.491 86.2008 138.459C86.2199 138.499 86.237 138.54 86.252 138.581ZM85.0413 129.715L84.9388 129.773C83.2961 130.698 81.5586 131.443 79.7563 131.996C77.9481 132.528 76.0743 132.804 74.1895 132.816C73.8628 132.816 73.5489 132.816 73.2094 132.816H73.03C71.5328 132.743 70.0482 132.504 68.6035 132.105C67.6935 131.855 66.7993 131.552 65.9258 131.195C65.0522 130.839 64.197 130.439 63.3634 129.997C61.8195 129.203 60.3461 128.287 58.8792 127.371L58.6421 127.223L58.4884 127.127C56.9002 126.093 55.2484 125.16 53.543 124.334H53.4789C53.4071 124.296 53.3321 124.263 53.2547 124.238C52.0853 123.708 50.8477 123.344 49.5776 123.155C49.5532 123.229 49.5339 123.304 49.52 123.38C49.951 123.439 50.3786 123.52 50.8012 123.623C51.5428 123.785 52.271 124.003 52.9792 124.277L53.1906 124.366L53.4469 124.475C55.1551 125.275 56.8111 126.182 58.4051 127.191L58.5204 127.262L58.7638 127.403C60.2629 128.312 61.7619 129.222 63.3249 130.016C64.1641 130.452 65.0289 130.855 65.8873 131.214C66.7623 131.578 67.6587 131.888 68.5714 132.143C70.0746 132.573 71.6222 132.829 73.1838 132.905H73.3631C73.6386 132.905 73.9076 132.905 74.1831 132.905C76.0847 132.908 77.9775 132.647 79.8076 132.13C81.6313 131.597 83.3891 130.86 85.0477 129.933V129.933L85.0413 129.715ZM82.639 116.436C82.2034 116.237 81.7614 116.083 81.313 115.923C80.8247 115.765 80.3287 115.633 79.8268 115.526C79.5706 115.481 79.3271 115.411 79.0709 115.385L78.3086 115.289C78.0523 115.257 77.7961 115.289 77.5398 115.244H77.1555C77.0274 115.244 76.8992 115.244 76.7711 115.244C74.7086 115.296 72.6848 115.815 70.852 116.762C69.0321 117.711 67.3437 118.893 65.8297 120.279C64.6061 121.355 63.453 122.508 62.3128 123.649L62.1334 123.828L61.4223 124.539C60.5127 125.442 59.5966 126.352 58.6293 127.198C58.5878 127.226 58.5492 127.258 58.514 127.294C57.9823 127.749 57.4378 128.184 56.8677 128.575C56.0488 129.167 55.1575 129.651 54.2156 130.016C53.2728 130.372 52.2696 130.539 51.2624 130.51C50.2517 130.496 49.2467 130.357 48.2708 130.093L47.88 129.971C47.88 130.042 47.848 130.112 47.8352 130.183L48.2068 130.305C49.2008 130.58 50.2248 130.733 51.256 130.759H51.6468H52.0311H52.4219L52.8063 130.695L53.1906 130.631C53.3187 130.631 53.4405 130.567 53.5686 130.535L53.9401 130.433C54.0682 130.394 54.1836 130.343 54.3053 130.298C55.2705 129.926 56.1834 129.431 57.0214 128.825C57.6236 128.398 58.203 127.941 58.7574 127.454L58.8663 127.364L59.3852 126.839C60.1411 126.147 60.8714 125.43 61.5953 124.706L62.3768 123.918L62.5434 123.745C63.6644 122.617 64.7855 121.49 65.9706 120.439C67.4672 119.06 69.1308 117.875 70.9224 116.91C72.7243 115.961 74.7169 115.431 76.7519 115.359H77.1363H77.5142C77.7705 115.359 78.0203 115.359 78.2765 115.398L79.0324 115.487C79.2823 115.487 79.5321 115.577 79.7819 115.622C80.2793 115.722 80.7711 115.848 81.2553 116C81.7294 116.173 82.197 116.327 82.6518 116.538L82.639 116.436ZM76.611 94.226C75.2593 95.0395 73.9653 95.9235 72.6713 96.7884L72.4727 96.9229L71.6399 97.493C69.9903 98.6817 68.2464 99.7337 66.4254 100.638C66.0987 100.792 65.7848 100.927 65.4261 101.055L65.2211 101.132C64.6775 101.327 64.1181 101.475 63.5491 101.574C62.5571 101.745 61.5414 101.723 60.5575 101.51C59.5663 101.315 58.604 100.994 57.694 100.555C57.5275 100.472 57.3609 100.382 57.2008 100.286C57.2008 100.35 57.1431 100.414 57.1175 100.478C57.2712 100.574 57.4314 100.664 57.5915 100.747C58.5162 101.206 59.4957 101.544 60.5063 101.753L60.8842 101.836L61.275 101.888L61.6594 101.939H62.0501H62.4345L62.8253 101.907H63.216C63.3441 101.907 63.4659 101.862 63.594 101.843C64.2491 101.732 64.8925 101.56 65.5158 101.33L65.7272 101.247C66.009 101.138 66.2909 101.023 66.5664 100.895C67.496 100.462 68.3969 99.9697 69.2633 99.4212C70.1345 98.8831 70.9865 98.313 71.8257 97.73L72.7418 97.0894L72.9403 96.9549C74.1895 96.0965 75.4387 95.2317 76.7391 94.4438L76.611 94.226ZM79.4681 102.797C79.1029 102.925 78.7314 103.041 78.3598 103.15L78.1997 103.194C77.7384 103.329 77.2708 103.451 76.8032 103.547C74.9725 103.977 73.067 103.977 71.2363 103.547C69.3876 103.198 67.6223 102.5 66.0347 101.49C65.9176 101.419 65.8043 101.342 65.6952 101.26L65.4261 101.08C64.141 100.052 62.7931 99.1038 61.3903 98.2425C60.5541 97.7765 59.6718 97.3986 58.7574 97.1151H58.6742V97.1599L58.7831 97.1919C59.2251 97.3585 59.6671 97.5186 60.1027 97.7108C60.5408 97.9016 60.9684 98.1155 61.3839 98.3514C62.7419 99.2008 64.043 100.138 65.2788 101.157L65.5414 101.343C65.6887 101.452 65.8361 101.548 65.9898 101.651C67.5903 102.688 69.3726 103.414 71.2427 103.79C73.1088 104.232 75.0524 104.232 76.9185 103.79C77.4245 103.681 77.9306 103.559 78.4239 103.412L78.584 103.367C78.9235 103.265 79.2631 103.156 79.5962 103.041C79.5193 102.97 79.4937 102.88 79.4681 102.797V102.797ZM80.2624 105.834L79.2438 104.354L78.5584 103.387L78.3918 103.15C77.495 101.868 76.5854 100.626 75.5668 99.4469C74.9025 98.663 74.167 97.9424 73.3695 97.2944C73.2286 97.1791 73.0877 97.0702 72.9403 96.9677L72.7033 96.8076C72.0776 96.3729 71.3882 96.038 70.6598 95.8146L69.9039 95.6289L69.1416 95.52C68.8917 95.4879 68.6355 95.4367 68.3793 95.4175L67.6105 95.3598H67.2262H66.0731C65.5602 95.3918 65.0492 95.4495 64.5421 95.5328C63.5311 95.7028 62.5335 95.9447 61.5569 96.2567C60.6344 96.5385 59.7055 96.8012 58.7574 96.9998L58.7062 97.1023V97.1471H58.8087C59.7568 96.9613 60.6921 96.6987 61.6209 96.4296C62.5918 96.1254 63.5829 95.89 64.5869 95.725C65.0879 95.6484 65.5925 95.5971 66.0987 95.5712H67.239L67.6234 95.6032L68.3793 95.6609C68.6291 95.6609 68.8789 95.7314 69.1352 95.7698L69.8847 95.8851L70.615 96.0645C71.2943 96.2808 71.9409 96.589 72.5368 96.9805L72.7738 97.1407C72.9403 97.256 73.1069 97.3777 73.267 97.5058C74.0582 98.14 74.7894 98.8455 75.4515 99.6134C76.4572 100.76 77.3733 101.99 78.2637 103.233L78.4303 103.47L79.1542 104.476L80.4354 106.224C80.3265 106.064 80.2944 105.949 80.2624 105.834V105.834Z" fill="white"/>
<path d="M72.9145 95.3025C71.1465 95.5139 67.2132 92.4583 65.5668 89.7613C65.4579 89.5756 65.6501 87.5641 65.7782 85.1042C65.8423 83.6116 65.8871 81.9524 65.8167 80.4342L75.4577 82.3048C75.0051 84.2294 74.79 86.2021 74.8171 88.1791C74.8279 88.3948 74.8579 88.6092 74.9068 88.8197C74.911 88.8537 74.911 88.8881 74.9068 88.9222C75.1694 90.0752 75.6883 94.9758 72.9145 95.3025Z" fill="#774442"/>
<path d="M65.7913 84.6812C67.854 87.4614 70.9161 90.1327 75.0223 89.4985C75.0223 89.2487 74.9583 89.0437 74.9262 88.9028C74.9237 88.8686 74.9237 88.8344 74.9262 88.8003C74.8684 88.5914 74.8362 88.3763 74.8301 88.1597C74.8042 86.1807 75.0193 84.2059 75.4707 82.2789L65.8617 80.4148C65.8874 81.8049 65.8553 83.2783 65.7913 84.6812Z" fill="#263238"/>
<path d="M63.2677 69.5891C62.4029 73.0227 64.6642 82.6958 67.1754 84.7521C70.814 87.7373 76.5346 87.763 79.0073 83.4709C81.4095 79.2814 78.2385 66.7256 75.4583 64.8935C71.3585 62.1389 64.5489 64.5284 63.2677 69.5891Z" fill="#774442"/>
<path d="M72.8379 74.5345C72.8379 74.5345 72.7931 74.5794 72.8059 74.605C72.9981 75.2456 73.1198 76.0143 72.5945 76.3859C72.5945 76.3859 72.5945 76.4307 72.5945 76.4243C73.2927 76.1232 73.1262 75.1111 72.8379 74.5345Z" fill="#263238"/>
<path d="M72.0751 74.0218C71.0181 74.2268 71.505 76.3344 72.4851 76.1422C73.4652 75.95 72.9655 73.8489 72.0751 74.0218Z" fill="#263238"/>
<path d="M76.6816 73.5031C76.6816 73.5031 76.7393 73.5031 76.7393 73.5479C76.8738 74.1885 77.1365 74.938 77.7771 75.0149V75.0533C77.0148 75.1174 76.6816 74.1501 76.6816 73.5031Z" fill="#263238"/>
<path d="M77.0853 72.6887C78.1102 72.362 78.6868 74.444 77.7259 74.7451C76.765 75.0461 76.2205 72.9578 77.0853 72.6887Z" fill="#263238"/>
<path d="M71.0183 73.2531C71.2766 73.1065 71.5268 72.9462 71.7678 72.7727C72.0561 72.5869 72.2995 72.4716 72.4084 72.1321C72.4356 72.0348 72.431 71.9314 72.3953 71.8369C72.3595 71.7424 72.2946 71.6618 72.2098 71.6068C72.0239 71.5275 71.8201 71.4993 71.6196 71.5252C71.4191 71.5511 71.2292 71.6302 71.0696 71.7541C70.7071 71.9549 70.4329 72.2839 70.3008 72.6766C70.2666 72.7719 70.263 72.8756 70.2905 72.9731C70.3179 73.0706 70.3751 73.1571 70.4541 73.2205C70.5331 73.284 70.6299 73.3212 70.731 73.3271C70.8321 73.3329 70.9326 73.3071 71.0183 73.2531Z" fill="#263238"/>
<path d="M77.6231 71.6966C77.3221 71.6966 77.0402 71.6966 76.7391 71.6966C76.4243 71.7329 76.1064 71.663 75.8359 71.498C75.7621 71.4306 75.7122 71.3411 75.6938 71.2429C75.6753 71.1447 75.6892 71.0431 75.7334 70.9535C75.8514 70.7895 76.0108 70.6597 76.1954 70.5775C76.38 70.4954 76.5831 70.4637 76.784 70.4859C77.1975 70.4696 77.6021 70.609 77.9178 70.8766C77.9804 70.942 78.0234 71.0236 78.0422 71.1121C78.061 71.2006 78.0547 71.2926 78.0241 71.3778C77.9935 71.4629 77.9398 71.5379 77.869 71.5942C77.7981 71.6505 77.713 71.686 77.6231 71.6966Z" fill="#263238"/>
<path d="M73.8758 78.6145C74.1004 78.8346 74.3687 79.0054 74.6632 79.1157C74.9578 79.226 75.2722 79.2735 75.5862 79.2551C75.8608 79.2439 76.1325 79.1943 76.3934 79.1077C76.4448 79.0952 76.4944 79.0758 76.5407 79.0501L76.6816 78.9988C76.7139 78.9822 76.7404 78.9561 76.7576 78.9241C76.7747 78.8921 76.7818 78.8556 76.7777 78.8195V78.8195C76.7804 78.796 76.7804 78.7724 76.7777 78.749V78.749V78.6913C76.6752 78.1853 76.4446 77.4101 76.4446 77.4101C76.6496 77.455 77.681 77.66 77.6105 77.4101C77.0214 75.1647 76.208 72.9843 75.1826 70.9016C75.1442 70.8312 75.0417 70.9016 75.0673 70.9401C75.5926 73.022 76.4895 74.9951 77.0532 77.077C76.6851 76.9981 76.3072 76.9744 75.9321 77.0066C75.8617 77.045 76.3934 78.4479 76.4254 78.6785C76.0237 78.8167 75.5984 78.8726 75.1746 78.8429C74.7509 78.8132 74.3375 78.6984 73.9591 78.5056C73.863 78.5184 73.8246 78.5696 73.8758 78.6145Z" fill="#263238"/>
<path d="M76.0413 78.9226C75.8482 79.3449 75.5505 79.7109 75.1765 79.986C74.9655 80.1251 74.7181 80.1986 74.4654 80.1974C73.9145 80.1974 73.7864 79.7042 73.7864 79.275C73.7894 79.0459 73.8195 78.818 73.8761 78.5959C74.5452 78.9308 75.3032 79.0451 76.0413 78.9226V78.9226Z" fill="#263238"/>
<path d="M75.1765 79.986C74.9655 80.125 74.7181 80.1986 74.4654 80.1974C73.9145 80.1974 73.7864 79.7041 73.7864 79.2749C74.0641 79.2237 74.3509 79.2656 74.6023 79.3942C74.8537 79.5228 75.0555 79.7308 75.1765 79.986V79.986Z" fill="#FF99BA"/>
<path d="M63.87 77.8016C63.4921 76.9624 59.783 67.8659 59.8727 66.796C59.956 65.8223 61.045 66.0465 61.0514 65.9953C61.0578 65.944 60.9553 65.0792 61.4358 64.6757C61.6073 64.5728 61.7981 64.506 61.9964 64.4796C62.1947 64.4532 62.3963 64.4676 62.5888 64.5219C62.5888 64.5219 62.5888 63.593 63.1398 63.2407C63.3204 63.1512 63.5213 63.1106 63.7225 63.123C63.9237 63.1353 64.1181 63.2002 64.2864 63.3112C64.301 63.0637 64.3757 62.8235 64.5041 62.6114C64.6325 62.3993 64.8106 62.2217 65.0231 62.094C65.2177 62.0064 65.4353 61.9834 65.6439 62.0283C65.8526 62.0733 66.0414 62.1839 66.1826 62.3439C66.1826 62.3439 66.2915 61.447 66.8552 61.1908C67.419 60.9346 68.0339 61.4919 68.0339 61.4919C68.0339 61.4919 68.2389 60.6591 68.9564 60.5374C69.1849 60.5206 69.4133 60.5726 69.6119 60.6868C69.8106 60.801 69.9705 60.9721 70.071 61.178C70.071 61.178 70.3785 60.358 71.0512 60.2363C71.7238 60.1146 72.0825 60.9153 72.0825 60.9153C72.0825 60.9153 72.2427 60.1274 72.8833 60.0762C73.5239 60.0249 73.8122 60.8961 73.8122 60.8961C73.8176 60.7992 73.8451 60.7049 73.8924 60.6201C73.9397 60.5354 74.0056 60.4625 74.0852 60.407C74.1648 60.3514 74.256 60.3147 74.3518 60.2996C74.4477 60.2844 74.5457 60.2913 74.6385 60.3196C75.8429 60.5118 77.2586 66.4309 77.8864 68.7691C77.8864 68.7691 77.1433 67.0459 76.65 67.0779C76.1568 67.1099 75.9133 67.9427 75.0357 68.2822C73.7865 68.7627 71.4035 67.5776 69.6803 68.231C67.9571 68.8844 67.0026 70.8831 66.7976 73.6953C66.5349 76.8727 64.7477 79.7938 63.87 77.8016Z" fill="#263238"/>
<path d="M65.746 77.4428C65.746 77.4428 63.3246 74.4448 61.9473 75.3289C60.57 76.2129 62.543 80.6715 64.2662 81.1775C64.4824 81.2588 64.7129 81.2953 64.9437 81.2848C65.1744 81.2743 65.4006 81.2169 65.6085 81.1163C65.8165 81.0156 66.0017 80.8738 66.1531 80.6993C66.3045 80.5248 66.4188 80.3214 66.4891 80.1013L65.746 77.4428Z" fill="#774442"/>
<path d="M62.5435 76.5907V76.6355C63.7542 77.0327 64.4653 78.0833 64.9649 79.1979C64.8881 79.0842 64.7874 78.9884 64.6699 78.9174C64.5524 78.8463 64.4209 78.8016 64.2845 78.7864C64.148 78.7712 64.0099 78.7858 63.8796 78.8292C63.7493 78.8726 63.63 78.9438 63.53 79.0378C63.5263 79.044 63.5244 79.0512 63.5246 79.0584C63.5248 79.0656 63.5271 79.0727 63.5311 79.0787C63.5351 79.0847 63.5407 79.0895 63.5473 79.0925C63.5539 79.0954 63.5613 79.0965 63.5684 79.0954C63.7717 79.0161 63.9944 79.0012 64.2064 79.0528C64.4184 79.1044 64.6094 79.2199 64.7535 79.3837C64.9991 79.6584 65.2139 79.9592 65.3941 80.2806C65.4582 80.3831 65.644 80.2806 65.5927 80.1973C65.4774 78.6534 64.1642 76.6291 62.5435 76.5907Z" fill="#263238"/>
<path d="M75.516 90.2351H75.484C75.9004 92.08 76.7652 96.3913 73.7736 96.5963C72.5617 96.5783 71.3807 96.2113 70.372 95.5393C69.3339 94.9379 68.3632 94.227 67.4765 93.4189C66.4569 92.5424 65.51 91.5848 64.6451 90.5554C64.613 90.5106 64.5426 90.5554 64.581 90.6195C65.4586 91.6444 66.2273 92.7399 67.2075 93.6879C68.1387 94.6108 69.1902 95.4038 70.3336 96.0453C71.4093 96.7292 72.6662 97.073 73.9402 97.0319C74.4879 96.9693 74.9972 96.7197 75.3823 96.3252C75.7674 95.9308 76.0047 95.4157 76.0542 94.8666C76.2218 93.302 76.0379 91.7197 75.516 90.2351Z" fill="#263238"/>
<path d="M166.465 75.7644L76.6587 84.1429L83.3425 155.784L173.149 147.406L166.465 75.7644Z" fill="url(#paint24_linear_4_3)"/>
<path d="M114.4 130.529L112.036 105.136L139.313 115.398L114.4 130.529Z" fill="white"/>
<path d="M86.3236 86.8899L81.0105 87.3856L81.3592 91.1233L86.6723 90.6276L86.3236 86.8899Z" fill="white"/>
<path d="M87.0377 94.4779L81.7246 94.9736L82.0733 98.7113L87.3864 98.2156L87.0377 94.4779Z" fill="white"/>
<path d="M87.7387 102.054L82.4255 102.55L82.7742 106.288L88.0874 105.792L87.7387 102.054Z" fill="white"/>
<path d="M88.4528 109.636L83.1396 110.132L83.4884 113.87L88.8015 113.374L88.4528 109.636Z" fill="white"/>
<path d="M89.1544 117.226L83.8413 117.721L84.19 121.459L89.5031 120.963L89.1544 117.226Z" fill="white"/>
<path d="M89.862 124.801L84.5488 125.297L84.8975 129.035L90.2107 128.539L89.862 124.801Z" fill="white"/>
<path d="M90.57 132.39L85.2568 132.885L85.6055 136.623L90.9187 136.127L90.57 132.39Z" fill="white"/>
<path d="M91.278 139.972L85.9648 140.468L86.3136 144.206L91.6267 143.71L91.278 139.972Z" fill="white"/>
<path d="M91.9845 147.548L86.6714 148.044L87.0201 151.782L92.3332 151.286L91.9845 147.548Z" fill="white"/>
<path d="M162.779 79.7604L157.466 80.2561L157.815 83.9938L163.128 83.4981L162.779 79.7604Z" fill="white"/>
<path d="M163.493 87.3367L158.18 87.8324L158.528 91.5701L163.842 91.0744L163.493 87.3367Z" fill="white"/>
<path d="M164.195 94.9256L158.882 95.4213L159.231 99.159L164.544 98.6633L164.195 94.9256Z" fill="white"/>
<path d="M164.902 102.508L159.589 103.004L159.938 106.742L165.251 106.246L164.902 102.508Z" fill="white"/>
<path d="M165.61 110.09L160.297 110.586L160.646 114.324L165.959 113.828L165.61 110.09Z" fill="white"/>
<path d="M166.318 117.673L161.005 118.168L161.354 121.906L166.667 121.41L166.318 117.673Z" fill="white"/>
<path d="M167.026 125.254L161.712 125.75L162.061 129.488L167.374 128.992L167.026 125.254Z" fill="white"/>
<path d="M167.733 132.843L162.42 133.339L162.769 137.077L168.082 136.581L167.733 132.843Z" fill="white"/>
<path d="M168.441 140.419L163.127 140.915L163.476 144.653L168.789 144.157L168.441 140.419Z" fill="white"/>
<path d="M68.7248 99.7995C70.4608 104.822 77.2127 125.18 78.2185 126.103C82.2735 129.844 92.4846 136.403 93.7274 137.761C95.4314 139.613 87.7698 151.028 85.0921 150.708C83.9839 150.58 70.3583 141.592 66.0919 137.185C62.6839 133.63 60.9094 110.92 60.8069 100.338C60.7173 91.2731 65.368 90.0623 68.7248 99.7995Z" fill="#774442"/>
<path d="M61.0188 117.481L74.9967 116.545C74.9967 116.545 70.5765 99.9345 66.1052 93.9961C61.6338 88.0577 60.7369 94.0345 60.5383 98.5892C60.3398 103.144 61.0188 117.481 61.0188 117.481Z" fill="url(#paint25_linear_4_3)"/>
<path d="M74.7595 115.609C73.5328 115.838 72.3445 116.24 71.2298 116.801H70.7302C70.7758 116.773 70.8228 116.747 70.8711 116.724C72.0841 116.114 73.3786 115.683 74.7147 115.443C74.7083 115.507 74.7595 115.558 74.7595 115.609ZM69.0518 99.2355C68.2108 99.7594 67.3403 100.234 66.4445 100.658C66.1178 100.811 65.8039 100.946 65.4452 101.074L65.2402 101.151C64.6966 101.346 64.1372 101.494 63.5682 101.593C62.5762 101.764 61.5605 101.742 60.5766 101.529H60.5254V101.785L60.9033 101.868L61.2941 101.92L61.6785 101.971H62.0692H62.4536L62.8444 101.939H63.2351C63.3632 101.939 63.485 101.894 63.6131 101.875C64.2682 101.764 64.9116 101.592 65.5349 101.362L65.7463 101.279C66.0281 101.17 66.31 101.055 66.5855 100.927C67.4839 100.509 68.3548 100.034 69.1927 99.5045L69.0518 99.2355ZM70.7878 103.438C69.1058 103.074 67.5025 102.413 66.0538 101.484C65.9367 101.413 65.8234 101.336 65.7143 101.253L65.4452 101.074C64.1601 100.045 62.8123 99.0975 61.4094 98.2361C61.1468 98.0888 60.8777 97.9479 60.6023 97.8198C60.6023 97.8582 60.6023 97.903 60.6023 97.9479C60.862 98.065 61.1144 98.1976 61.3582 98.345C62.7162 99.1945 64.0173 100.132 65.253 101.151L65.5157 101.337C65.663 101.446 65.8103 101.542 65.9641 101.644C67.4707 102.627 69.1446 103.327 70.9031 103.707C70.8391 103.617 70.807 103.528 70.7686 103.438H70.7878ZM67.0275 95.3342H66.0602C65.5473 95.3662 65.0363 95.4239 64.5291 95.5072C63.5181 95.6772 62.5205 95.9191 61.5439 96.2311L60.7048 96.4809C60.7016 96.5342 60.7016 96.5877 60.7048 96.641L61.6016 96.3848C62.5725 96.0806 63.5636 95.8452 64.5676 95.6801C65.0686 95.6036 65.5732 95.5523 66.0794 95.5264H67.1556L67.0275 95.3342Z" fill="white"/>
<path d="M61.3905 114.366C63.3123 114.065 65.3238 113.995 67.2777 113.867C69.2315 113.739 71.2878 113.745 73.2929 113.655C73.3506 113.655 73.357 113.751 73.2929 113.758C71.3327 113.931 69.3788 114.181 67.4122 114.283C65.4087 114.434 63.3987 114.479 61.3905 114.418C61.3905 114.418 61.3649 114.373 61.3905 114.366Z" fill="#263238"/>
<path d="M59.9432 105.699C60.0841 106.545 60.2315 107.384 60.3852 108.223C60.3852 106.474 60.3852 104.719 60.4236 102.97C60.4236 102.926 60.5005 102.926 60.5005 102.97C60.6863 105.405 60.7952 107.852 60.8785 110.286C60.9617 112.72 61.1155 115.007 61.0322 117.333L61.5575 117.371C61.5762 117.371 61.5941 117.379 61.6073 117.392C61.6205 117.405 61.628 117.423 61.628 117.442C61.628 117.46 61.6205 117.478 61.6073 117.491C61.5941 117.505 61.5762 117.512 61.5575 117.512L60.9169 117.595C60.8992 117.598 60.8812 117.597 60.8638 117.593C60.8464 117.588 60.8301 117.581 60.8158 117.57C60.8015 117.559 60.7895 117.546 60.7804 117.53C60.7714 117.515 60.7655 117.498 60.7632 117.48C60.4749 115.065 60.4621 112.579 60.4108 110.152C60.4108 109.754 60.4108 109.357 60.4108 108.96C60.1524 107.886 59.9577 106.797 59.8279 105.699C59.8331 105.689 59.8413 105.679 59.8515 105.673C59.8617 105.667 59.8735 105.663 59.8855 105.663C59.8976 105.663 59.9094 105.667 59.9196 105.673C59.9298 105.679 59.9379 105.689 59.9432 105.699V105.699Z" fill="#263238"/>
<path d="M74.4773 116.589L74.9898 116.512L74.9514 116.564C74.5542 115.532 74.2019 114.488 73.8431 113.45C73.4844 112.413 73.1641 111.349 72.8438 110.292C72.5235 109.235 72.2032 108.178 71.9405 107.089C71.6779 106 71.3768 104.956 71.1526 103.886C71.5626 104.911 71.9277 105.949 72.2801 106.993C72.6324 108.037 72.9719 109.088 73.2986 110.145C73.6253 111.202 73.9392 112.252 74.2211 113.348C74.5029 114.443 74.7912 115.481 75.0346 116.551V116.602H74.4645L74.4773 116.589Z" fill="#263238"/>
<path d="M72.3641 105.059C72.6305 106.094 72.6893 107.172 72.5371 108.23C72.2621 107.196 72.2033 106.116 72.3641 105.059V105.059Z" fill="#263238"/>
<path d="M100.448 144.135C99.8072 143.289 100.268 142.956 102.069 143.462C103.869 143.968 110.556 147.485 111.588 145.051C112.619 142.617 103.106 137.78 100.057 137.172C97.0078 136.563 91.8381 136.646 91.8381 136.646C93.4909 137.934 97.2192 141.496 100.448 144.135Z" fill="#774442"/>
<path d="M83.5742 149.843C88.3915 154.122 94.1698 158.043 100.87 158.716C101.612 158.807 102.364 158.647 103.004 158.261C106.002 158.613 107.071 157.306 107.071 157.306C109.961 156.781 110.87 155.288 110.87 155.288C110.87 155.288 113.311 155.288 113.433 153.571C113.554 151.855 109.666 150.58 106.892 148.831C100.55 144.834 93.5484 137.941 91.838 136.621L83.5742 149.843Z" fill="#774442"/>
<path d="M98.1934 149.901C100.039 151.1 101.966 152.17 103.959 153.104C106.196 153.984 108.496 154.697 110.839 155.237C110.854 155.237 110.869 155.243 110.88 155.254C110.89 155.265 110.896 155.28 110.896 155.295C110.896 155.31 110.89 155.325 110.88 155.336C110.869 155.346 110.854 155.353 110.839 155.353C106.206 154.762 101.825 152.91 98.1741 149.997C98.0588 149.901 98.0973 149.837 98.1934 149.901Z" fill="#263238"/>
<path d="M95.2204 153.372C97.1422 154.378 100.473 156.127 107.084 157.216V157.255C102.84 157.113 98.7189 155.793 95.182 153.443C95.0603 153.392 95.0987 153.308 95.2204 153.372Z" fill="#263238"/>
<path d="M93.664 155.269C96.9567 156.864 99.2372 157.447 102.998 158.242V158.287C98.635 157.825 97.104 157.165 93.5999 155.378C93.4718 155.314 93.5294 155.212 93.664 155.269Z" fill="#263238"/>
<path d="M117.462 77.3531C119.871 76.2 122.856 73.3045 124.822 73.061C125.309 72.985 125.808 73.0687 126.243 73.2996C126.679 73.5306 127.027 73.8964 127.237 74.3422C127.237 74.3422 128.205 72.3756 130.03 72.4204C130.972 72.4589 131.734 73.9899 131.734 73.9899C131.979 73.5557 132.339 73.1974 132.774 72.9545C133.209 72.7115 133.703 72.5932 134.201 72.6126C135.482 72.7407 136.065 74.259 136.065 74.259C136.065 74.259 137.57 73.1571 138.839 73.708C141.401 74.8355 141.459 85.9563 137.372 87.6923C135.45 88.4995 135.597 85.7705 135.597 85.7705C135.597 85.7705 134.463 89.6141 132.17 89.6974C129.877 89.7807 130.248 86.2446 130.248 86.2446C130.248 86.2446 129.108 89.9793 126.725 89.8127C124.239 89.6334 125.239 86.1805 125.239 86.1805C125.239 86.1805 123.567 88.6597 121.773 88.1023C118.807 87.1927 122.516 82.4971 121.92 80.0564L117.885 78.7239L117.462 77.3531Z" fill="#774442"/>
<path d="M120.96 75.1108C118.583 76.0013 115.637 73.0673 113.241 73.599C110.038 74.3165 113.196 77.9487 117.904 78.7238H121.671L120.96 75.1108Z" fill="#774442"/>
<path d="M136.187 74.477C136.187 74.4385 136.238 74.4321 136.245 74.477C137.2 78.2735 136.976 82.2708 135.604 85.9373C135.559 86.0526 135.348 86.027 135.38 85.8925C136.203 82.1468 136.475 78.3011 136.187 74.477V74.477Z" fill="#263238"/>
<path d="M131.773 73.9321C131.773 73.8872 131.837 73.8808 131.85 73.9321C132.865 78.1278 132.342 82.5484 130.377 86.3917C130.306 86.5263 130.108 86.5711 130.178 86.3917C131.376 83.7333 132.081 77.513 131.773 73.9321Z" fill="#263238"/>
<path d="M125.015 86.4172C126.892 82.6441 127.379 78.6467 127.283 74.4636C127.283 74.4124 127.36 74.4124 127.373 74.4636C127.975 76.4943 127.757 79.1656 127.411 81.2284C127.129 83.1518 126.347 84.9675 125.144 86.4941C125.099 86.5453 124.971 86.4813 125.015 86.4172Z" fill="#263238"/>
</g>
<defs>
<linearGradient id="paint0_linear_4_3" x1="244.138" y1="154.311" x2="244.138" y2="254.162" gradientUnits="userSpaceOnUse">
<stop stop-color="#27AE60"/>
<stop offset="1" stop-color="#229754"/>
</linearGradient>
<linearGradient id="paint1_linear_4_3" x1="239.573" y1="154.513" x2="239.573" y2="228.31" gradientUnits="userSpaceOnUse">
<stop stop-color="#27AE60"/>
<stop offset="1" stop-color="#229754"/>
</linearGradient>
<linearGradient id="paint2_linear_4_3" x1="264.209" y1="186.745" x2="264.209" y2="263.489" gradientUnits="userSpaceOnUse">
<stop stop-color="#27AE60"/>
<stop offset="1" stop-color="#229754"/>
</linearGradient>
<linearGradient id="paint3_linear_4_3" x1="265.102" y1="186.248" x2="265.102" y2="236.843" gradientUnits="userSpaceOnUse">
<stop stop-color="#27AE60"/>
<stop offset="1" stop-color="#229754"/>
</linearGradient>
<linearGradient id="paint4_linear_4_3" x1="233.47" y1="204.928" x2="233.47" y2="261.427" gradientUnits="userSpaceOnUse">
<stop stop-color="#27AE60"/>
<stop offset="1" stop-color="#229754"/>
</linearGradient>
<linearGradient id="paint5_linear_4_3" x1="230.349" y1="204.653" x2="230.349" y2="239.745" gradientUnits="userSpaceOnUse">
<stop stop-color="#27AE60"/>
<stop offset="1" stop-color="#229754"/>
</linearGradient>
<linearGradient id="paint6_linear_4_3" x1="139.441" y1="46.9429" x2="139.441" y2="84.3607" gradientUnits="userSpaceOnUse">
<stop stop-color="#27AE60"/>
<stop offset="1" stop-color="#229754"/>
</linearGradient>
<linearGradient id="paint7_linear_4_3" x1="183.905" y1="193.558" x2="183.905" y2="195.159" gradientUnits="userSpaceOnUse">
<stop stop-color="#27AE60"/>
<stop offset="1" stop-color="#229754"/>
</linearGradient>
<linearGradient id="paint8_linear_4_3" x1="139.46" y1="194.518" x2="139.46" y2="195.159" gradientUnits="userSpaceOnUse">
<stop stop-color="#27AE60"/>
<stop offset="1" stop-color="#229754"/>
</linearGradient>
<linearGradient id="paint9_linear_4_3" x1="95.0158" y1="193.558" x2="95.0158" y2="195.159" gradientUnits="userSpaceOnUse">
<stop stop-color="#27AE60"/>
<stop offset="1" stop-color="#229754"/>
</linearGradient>
<linearGradient id="paint10_linear_4_3" x1="94.5354" y1="127.076" x2="94.5354" y2="191.008" gradientUnits="userSpaceOnUse">
<stop stop-color="#27AE60"/>
<stop offset="1" stop-color="#229754"/>
</linearGradient>
<linearGradient id="paint11_linear_4_3" x1="95.0158" y1="123.143" x2="95.0158" y2="124.744" gradientUnits="userSpaceOnUse">
<stop stop-color="#27AE60"/>
<stop offset="1" stop-color="#229754"/>
</linearGradient>
<linearGradient id="paint12_linear_4_3" x1="139.46" y1="123.143" x2="139.46" y2="123.783" gradientUnits="userSpaceOnUse">
<stop stop-color="#27AE60"/>
<stop offset="1" stop-color="#229754"/>
</linearGradient>
<linearGradient id="paint13_linear_4_3" x1="183.905" y1="123.143" x2="183.905" y2="124.744" gradientUnits="userSpaceOnUse">
<stop stop-color="#27AE60"/>
<stop offset="1" stop-color="#229754"/>
</linearGradient>
<linearGradient id="paint14_linear_4_3" x1="184.385" y1="127.076" x2="184.385" y2="191.008" gradientUnits="userSpaceOnUse">
<stop stop-color="#27AE60"/>
<stop offset="1" stop-color="#229754"/>
</linearGradient>
<linearGradient id="paint15_linear_4_3" x1="113.51" y1="211.731" x2="113.51" y2="214.986" gradientUnits="userSpaceOnUse">
<stop stop-color="#27AE60"/>
<stop offset="1" stop-color="#229754"/>
</linearGradient>
<linearGradient id="paint16_linear_4_3" x1="196.151" y1="90.4336" x2="196.151" y2="99.9337" gradientUnits="userSpaceOnUse">
<stop stop-color="#27AE60"/>
<stop offset="1" stop-color="#229754"/>
</linearGradient>
<linearGradient id="paint17_linear_4_3" x1="196.122" y1="97.1907" x2="196.122" y2="104.713" gradientUnits="userSpaceOnUse">
<stop stop-color="#27AE60"/>
<stop offset="1" stop-color="#229754"/>
</linearGradient>
<linearGradient id="paint18_linear_4_3" x1="196.131" y1="104.01" x2="196.131" y2="109.542" gradientUnits="userSpaceOnUse">
<stop stop-color="#27AE60"/>
<stop offset="1" stop-color="#229754"/>
</linearGradient>
<linearGradient id="paint19_linear_4_3" x1="196.128" y1="109.536" x2="196.128" y2="113.88" gradientUnits="userSpaceOnUse">
<stop stop-color="#27AE60"/>
<stop offset="1" stop-color="#229754"/>
</linearGradient>
<linearGradient id="paint20_linear_4_3" x1="87.0883" y1="271.84" x2="87.0883" y2="295.256" gradientUnits="userSpaceOnUse">
<stop stop-color="#27AE60"/>
<stop offset="1" stop-color="#229754"/>
</linearGradient>
<linearGradient id="paint21_linear_4_3" x1="20.629" y1="254.248" x2="20.629" y2="295.066" gradientUnits="userSpaceOnUse">
<stop stop-color="#27AE60"/>
<stop offset="1" stop-color="#229754"/>
</linearGradient>
<linearGradient id="paint22_linear_4_3" x1="77.9872" y1="87.707" x2="77.9872" y2="104.553" gradientUnits="userSpaceOnUse">
<stop stop-color="#27AE60"/>
<stop offset="1" stop-color="#229754"/>
</linearGradient>
<linearGradient id="paint23_linear_4_3" x1="66.0919" y1="87.61" x2="66.0919" y2="140.982" gradientUnits="userSpaceOnUse">
<stop stop-color="#27AE60"/>
<stop offset="1" stop-color="#229754"/>
</linearGradient>
<linearGradient id="paint24_linear_4_3" x1="121.562" y1="79.9537" x2="128.246" y2="151.595" gradientUnits="userSpaceOnUse">
<stop stop-color="#2EB2E9"/>
<stop offset="1" stop-color="#3085ED"/>
</linearGradient>
<linearGradient id="paint25_linear_4_3" x1="67.7493" y1="91.5085" x2="67.7493" y2="117.481" gradientUnits="userSpaceOnUse">
<stop stop-color="#27AE60"/>
<stop offset="1" stop-color="#229754"/>
</linearGradient>
<clipPath id="clip0_4_3">
<rect width="375" height="812" fill="white" transform="translate(-63 -199)"/>
</clipPath>
</defs>
</svg>
