<svg xmlns="http://www.w3.org/2000/svg" xmlns:xlink="http://www.w3.org/1999/xlink" width="512" zoomAndPan="magnify" viewBox="0 0 384 383.999986" height="512" preserveAspectRatio="xMidYMid meet" version="1.0"><defs><clipPath id="id1"><path d="M 32.886719 86.078125 L 350.863281 86.078125 L 350.863281 383.996094 L 32.886719 383.996094 Z M 32.886719 86.078125 " clip-rule="nonzero"/></clipPath></defs><rect x="-38.4" width="460.8" fill="#ffffff" y="-38.399999" height="460.799983" fill-opacity="1"/><rect x="-38.4" width="460.8" fill="#ffffff" y="-38.399999" height="460.799983" fill-opacity="1"/><rect x="-38.4" width="460.8" fill="#ffffff" y="-38.399999" height="460.799983" fill-opacity="1"/><rect x="-38.4" width="460.8" fill="#ffffff" y="-38.399999" height="460.799983" fill-opacity="1"/><g clip-path="url(#id1)"><path fill="#fdbcaa" d="M 159.894531 284.53125 C 172.105469 307.089844 199.246094 318.632812 222.148438 326.671875 C 227.589844 328.582031 233.65625 329.574219 238.925781 331.832031 C 240.703125 332.59375 260.214844 381.414062 266.976562 382.398438 C 278.617188 384.09375 299.339844 386.398438 321.339844 377.621094 C 333.636719 372.710938 346.960938 359.925781 350.800781 348.457031 C 352.199219 344.292969 328.589844 287.625 321.265625 272.523438 C 316.410156 262.5 310.570312 252.734375 307.234375 242.054688 C 301.632812 224.113281 305.546875 204.832031 302.820312 186.582031 C 301.007812 174.445312 291.550781 166.347656 286.390625 155.691406 C 284.359375 151.492188 282.570312 147.132812 281.308594 142.632812 C 279.378906 135.730469 279.761719 126.097656 273.769531 121.035156 C 269.964844 117.816406 264.628906 116.421875 259.890625 115.308594 C 255.84375 114.359375 251.738281 113.867188 247.589844 113.65625 C 241.984375 113.367188 236.363281 113.402344 230.765625 113.820312 Z M 88.703125 191.707031 C 87.4375 190.984375 86.242188 190.152344 85.316406 189.027344 C 83.011719 186.238281 81.378906 182.902344 81.597656 179.195312 C 81.738281 176.785156 82.644531 174.378906 83.402344 172.109375 C 84.542969 168.699219 85.8125 165.128906 88.035156 162.253906 C 90.113281 159.558594 92.84375 157.882812 95.726562 156.191406 C 98.148438 154.773438 100.527344 153.378906 103.132812 152.320312 L 107.796875 198.503906 C 107.605469 198.472656 107.414062 198.4375 107.222656 198.402344 C 107.191406 198.734375 107.136719 199.070312 107.082031 199.398438 C 107.058594 199.542969 107.054688 199.835938 106.921875 199.933594 C 106.589844 200.175781 105.652344 199.789062 105.332031 199.695312 C 103.945312 199.296875 102.5625 198.863281 101.207031 198.359375 L 104.910156 233.21875 C 104.234375 233.304688 103.566406 233.410156 102.894531 233.5 C 102.980469 234.378906 102.992188 235.261719 103.023438 236.070312 C 103.15625 240.078125 103.050781 244.097656 102.832031 248.097656 C 102.765625 249.367188 102.660156 250.652344 102.476562 251.914062 L 105.195312 258.921875 C 103.121094 258.933594 100.972656 258.953125 98.941406 258.472656 C 94.796875 257.492188 91.015625 254.664062 88.5 251.277344 C 84.070312 245.3125 85.664062 236.265625 91.023438 231.378906 C 89.089844 230.292969 87.382812 228.832031 86.113281 227.007812 C 83.824219 223.71875 84.042969 219.042969 84.445312 215.253906 C 84.828125 211.667969 85.441406 207.875 87.132812 204.640625 C 89.113281 200.855469 92.59375 197.867188 96.582031 196.273438 C 95.671875 195.804688 94.777344 195.316406 93.882812 194.832031 C 92.15625 193.894531 90.335938 192.902344 88.703125 191.707031 Z M 105.390625 109.847656 C 101.6875 109.777344 71.476562 93.902344 68.023438 92.6875 C 62.390625 90.703125 56.800781 88.566406 50.980469 87.183594 C 47.019531 86.238281 42.058594 85.535156 38.214844 87.328125 C 33.871094 89.355469 31.554688 99.324219 33.695312 103.449219 C 35.210938 106.375 38.394531 108.691406 40.890625 110.71875 C 46.542969 115.320312 52.800781 118.980469 58.941406 122.875 C 68.292969 128.808594 96.226562 143.613281 103.472656 148.765625 L 105.390625 109.847656 " fill-opacity="1" fill-rule="evenodd"/></g><path fill="#fa987d" d="M 89.375 230.316406 L 89.488281 230.285156 C 92.925781 232.332031 96.910156 232.984375 100.777344 233.757812 C 101.503906 233.90625 102.226562 234.058594 102.949219 234.214844 C 102.988281 234.851562 103 235.480469 103.023438 236.070312 C 103.054688 237.003906 103.070312 237.941406 103.078125 238.875 C 100.515625 238.660156 97.972656 238.257812 95.632812 237.3125 C 93.351562 236.390625 91.238281 234.882812 89.328125 233.21875 C 89.839844 232.554688 90.40625 231.9375 91.023438 231.378906 C 90.453125 231.058594 89.898438 230.703125 89.375 230.316406 " fill-opacity="1" fill-rule="evenodd"/><path fill="#000000" d="M 251.707031 21.933594 C 251.707031 9.820312 241.894531 0 229.789062 0 C 201.328125 0 151.933594 0 123.472656 0 C 111.367188 0 101.554688 9.820312 101.554688 21.933594 C 101.554688 76.863281 101.554688 219.863281 101.554688 274.792969 C 101.554688 286.910156 111.367188 296.726562 123.472656 296.726562 C 151.933594 296.726562 201.328125 296.726562 229.789062 296.726562 C 241.894531 296.726562 251.707031 286.910156 251.707031 274.792969 C 251.707031 219.863281 251.707031 76.863281 251.707031 21.933594 " fill-opacity="1" fill-rule="evenodd"/><path fill="#f3e9e8" d="M 245.25 28.875 C 245.25 17.429688 236.28125 8.148438 225.21875 8.148438 C 199.203125 8.148438 154.058594 8.148438 128.042969 8.148438 C 116.980469 8.148438 108.011719 17.429688 108.011719 28.875 C 108.011719 80.789062 108.011719 215.9375 108.011719 267.851562 C 108.011719 279.296875 116.980469 288.578125 128.042969 288.578125 C 154.058594 288.578125 199.203125 288.578125 225.21875 288.578125 C 236.28125 288.578125 245.25 279.296875 245.25 267.851562 C 245.25 215.9375 245.25 80.789062 245.25 28.875 " fill-opacity="1" fill-rule="evenodd"/><path fill="#674c5a" d="M 108.011719 182.875 C 110.636719 182.15625 113.339844 181.679688 115.945312 181.207031 C 129.269531 178.800781 143.039062 178.617188 156.480469 180.109375 L 156.539062 180.121094 C 178.792969 178.902344 211.144531 177.492188 226.789062 177.109375 C 227.460938 176.09375 238.253906 178.457031 245.25 180.578125 L 245.25 267.851562 C 245.25 279.296875 236.28125 288.578125 225.21875 288.578125 C 199.203125 288.578125 154.058594 288.578125 128.042969 288.578125 C 116.980469 288.578125 108.011719 279.296875 108.011719 267.851562 L 108.011719 182.875 " fill-opacity="1" fill-rule="evenodd"/><path fill="#fa987d" d="M 192.675781 173.574219 C 191.46875 179.441406 190.300781 185.292969 188.628906 191.046875 C 188.164062 192.648438 187.910156 196.023438 186.4375 197.136719 C 183.578125 199.296875 179.289062 198.183594 176.164062 197.417969 C 167.6875 195.339844 160.289062 190.914062 153.296875 185.796875 C 151.320312 184.347656 149.390625 182.84375 147.386719 181.433594 C 146.863281 181.0625 145.378906 180.425781 145.164062 179.757812 C 144.921875 179.015625 153.796875 148.003906 155.546875 141.183594 L 192.675781 173.574219 " fill-opacity="1" fill-rule="evenodd"/><path fill="#ff7c58" d="M 193.171875 189.082031 C 180.757812 185.257812 168.472656 176.71875 161.945312 165.332031 C 159.902344 161.765625 159.324219 158.167969 159 154.144531 C 158.960938 153.644531 158.390625 150.613281 159.1875 150.429688 C 160.148438 150.203125 161.8125 151.351562 162.59375 151.730469 C 165.710938 153.230469 168.835938 154.707031 172.042969 156.015625 C 183.75 160.796875 195.585938 164.46875 206.820312 170.378906 L 193.171875 189.082031 " fill-opacity="1" fill-rule="evenodd"/><path fill="#111111" d="M 122.875 78.285156 C 123.4375 82.109375 123.242188 86.070312 123.679688 89.917969 C 124.421875 96.5 125.976562 102.960938 127.035156 109.5 C 127.621094 113.148438 127.222656 118.554688 129.222656 121.871094 C 130.003906 123.15625 131.792969 124.183594 132.996094 125.054688 C 135.8125 127.097656 138.628906 129.140625 141.492188 131.121094 C 145.09375 133.613281 148.679688 136.140625 152.363281 138.523438 C 152.839844 138.832031 155.394531 140.929688 156.066406 140.304688 C 156.691406 139.722656 156.542969 138.144531 156.570312 137.414062 C 156.675781 134.597656 156.484375 131.769531 156.316406 128.957031 C 155.683594 118.570312 155.78125 108.273438 156.703125 97.929688 L 122.875 78.285156 " fill-opacity="1" fill-rule="evenodd"/><path fill="#fa987d" d="M 153.851562 137.285156 C 150.359375 131.671875 147.714844 125.820312 147.113281 118.898438 C 145.527344 100.640625 151.972656 84.144531 165.167969 72.011719 C 169.898438 67.667969 175.144531 63.601562 181.058594 60.988281 C 184.144531 59.625 187.523438 59.214844 190.835938 58.800781 C 195.027344 58.273438 199.074219 57.800781 203.273438 58.628906 C 219.265625 61.78125 229.699219 75.835938 232.054688 91.296875 C 232.773438 96 232.71875 101.089844 231.480469 105.710938 C 230.804688 108.234375 229.675781 110.609375 229.039062 113.140625 C 228.179688 116.558594 228.976562 119.550781 229.355469 122.941406 C 229.738281 126.339844 229.941406 130.21875 229.496094 133.851562 C 229.164062 139.296875 228.125 144.675781 226.15625 149.847656 C 224.167969 155.0625 221.136719 158.820312 217.304688 162.804688 C 212.808594 167.480469 208.464844 172.761719 202.34375 175.40625 C 197.703125 177.410156 191.726562 176 187.058594 174.957031 C 179.554688 173.28125 171.246094 171.359375 164.582031 167.28125 C 161.824219 165.59375 158.847656 163.449219 156.476562 161.238281 C 155.085938 159.9375 153.917969 158.054688 152.207031 157.148438 C 150.21875 156.09375 147.527344 156.683594 145.351562 156.457031 C 140.515625 155.953125 136.894531 154.769531 133.507812 151.003906 C 128.386719 145.300781 125.167969 138.957031 124.265625 131.355469 C 124.066406 129.6875 123.820312 127.542969 124.457031 125.9375 C 125.71875 122.777344 131.523438 121.730469 134.511719 122.328125 C 137.496094 122.925781 139.84375 125.457031 141.910156 127.5 C 145.484375 131.039062 149.183594 134.460938 153.261719 137.410156 L 153.851562 137.285156 " fill-opacity="1" fill-rule="evenodd"/><path fill="#000000" d="M 176.34375 110.714844 C 179.535156 111.046875 181.8125 114.300781 181.429688 117.984375 C 181.050781 121.660156 178.148438 124.382812 174.960938 124.050781 C 171.769531 123.71875 169.492188 120.460938 169.875 116.78125 C 170.257812 113.101562 173.15625 110.382812 176.34375 110.714844 " fill-opacity="1" fill-rule="evenodd"/><path fill="#000000" d="M 216.460938 113.863281 C 219.652344 114.195312 221.929688 117.453125 221.546875 121.132812 C 221.167969 124.8125 218.265625 127.53125 215.078125 127.199219 C 211.886719 126.867188 209.609375 123.609375 209.988281 119.929688 C 210.371094 116.25 213.273438 113.53125 216.460938 113.863281 " fill-opacity="1" fill-rule="evenodd"/><path fill="#ff9274" d="M 200.414062 124.023438 C 205.5 122.367188 210.78125 125.160156 214.917969 127.765625 C 216.472656 128.746094 217.878906 130.105469 219.648438 130.691406 C 221.882812 131.433594 225.367188 130.488281 227.316406 131.914062 C 229.25 133.332031 228.414062 137.144531 228.203125 139.191406 C 228.089844 140.292969 228.183594 141.332031 226.996094 141.777344 C 225.164062 142.46875 222.414062 141.96875 220.511719 141.773438 C 217.683594 141.476562 214.605469 141.136719 211.851562 140.453125 C 208.988281 139.746094 206.304688 138.574219 203.371094 138.105469 C 198.105469 137.265625 192.789062 138.972656 187.542969 139.1875 C 180.78125 139.464844 171.945312 138.222656 165.375 136.941406 C 162.320312 136.34375 158.8125 135.058594 157.285156 132.105469 C 156.429688 130.453125 156.210938 127.328125 158.234375 126.390625 C 159.699219 125.710938 161.523438 126.285156 163.058594 126.378906 C 166.730469 126.597656 170.503906 126.890625 174.175781 126.808594 L 200.414062 124.023438 " fill-opacity="1" fill-rule="evenodd"/><path fill="#000000" d="M 185.488281 116.464844 C 185.226562 115.902344 184.875 115.371094 184.472656 114.867188 C 183.878906 114.121094 183.183594 113.449219 182.503906 112.851562 C 181.3125 111.8125 180.117188 110.691406 178.753906 109.882812 C 177.765625 109.296875 176.6875 108.902344 175.492188 108.765625 C 174.125 108.617188 172.828125 108.765625 171.570312 109.058594 C 169.910156 109.445312 168.316406 110.082031 166.695312 110.601562 C 165.726562 110.914062 162.359375 113.570312 162.882812 113.671875 C 163.210938 113.734375 163.546875 113.730469 163.902344 113.738281 C 165.308594 113.640625 166.652344 113.296875 167.957031 112.824219 C 169.707031 112.191406 171.386719 111.34375 173.222656 110.953125 C 173.910156 110.804688 174.617188 110.707031 175.363281 110.722656 C 176.308594 110.738281 177.171875 110.980469 177.996094 111.351562 C 179.359375 111.964844 180.609375 112.875 181.84375 113.710938 C 182.550781 114.1875 183.289062 114.730469 183.933594 115.355469 C 184.363281 115.773438 184.753906 116.214844 185.0625 116.703125 C 185.128906 116.820312 185.277344 116.863281 185.394531 116.796875 C 185.511719 116.730469 185.554688 116.582031 185.488281 116.464844 " fill-opacity="1" fill-rule="evenodd"/><path fill="#000000" d="M 210.476562 117.214844 C 211.140625 115.945312 212.339844 115.074219 213.726562 114.492188 C 215.742188 113.640625 218.171875 113.46875 220.027344 113.832031 C 220.859375 113.980469 221.617188 114.277344 222.351562 114.617188 C 223.28125 115.046875 224.15625 115.585938 225.050781 116.097656 C 226.023438 116.652344 227.011719 117.171875 228.066406 117.585938 C 228.628906 117.78125 229.171875 117.964844 229.71875 118.035156 C 230.113281 118.082031 227.113281 114.398438 226.21875 113.9375 C 225.234375 113.433594 224.25 112.933594 223.214844 112.546875 C 222.285156 112.203125 221.324219 111.941406 220.289062 111.851562 C 218.476562 111.714844 216.242188 112.027344 214.289062 112.902344 C 212.347656 113.773438 210.695312 115.136719 210.027344 117.019531 C 209.972656 117.140625 210.03125 117.285156 210.152344 117.339844 C 210.277344 117.394531 210.421875 117.335938 210.476562 117.214844 " fill-opacity="1" fill-rule="evenodd"/><path fill="#000000" d="M 202.011719 121.617188 C 202.199219 122.675781 202.109375 123.75 202.023438 124.828125 C 201.945312 125.773438 201.863281 126.726562 202.050781 127.675781 C 202.273438 128.816406 202.535156 130.058594 203.082031 131.089844 C 203.292969 131.488281 203.589844 131.84375 203.839844 132.21875 C 204.175781 132.726562 204.4375 133.261719 204.484375 133.890625 C 204.566406 134.929688 203.996094 135.960938 203.644531 136.90625 C 203.5 137.292969 203.070312 137.492188 202.679688 137.347656 C 202.292969 137.203125 202.09375 136.773438 202.238281 136.382812 C 202.394531 135.957031 202.613281 135.519531 202.78125 135.066406 C 202.910156 134.71875 203.019531 134.367188 202.988281 134.007812 C 202.960938 133.644531 202.785156 133.34375 202.589844 133.050781 C 202.3125 132.632812 201.988281 132.234375 201.757812 131.792969 C 201.140625 130.632812 200.828125 129.246094 200.578125 127.964844 C 200.367188 126.878906 200.4375 125.789062 200.527344 124.707031 C 200.605469 123.753906 200.695312 122.808594 200.535156 121.875 C 200.460938 121.46875 200.734375 121.078125 201.140625 121.007812 C 201.550781 120.933594 201.9375 121.207031 202.011719 121.617188 " fill-opacity="1" fill-rule="evenodd"/><path fill="#fa987d" d="M 232.59375 182.078125 C 232.789062 179.546875 232.917969 176.996094 233.054688 174.46875 C 233.132812 173.109375 232.761719 171.816406 232.695312 170.464844 C 232.597656 168.480469 232.796875 166.492188 232.910156 164.515625 C 232.941406 163.96875 232.964844 163.425781 232.976562 162.878906 C 233.019531 161.175781 233.558594 157.289062 230.972656 157.152344 C 228.886719 157.042969 228.058594 159.359375 227.640625 161.246094 C 227.566406 160.988281 227.476562 160.730469 227.363281 160.484375 C 226.734375 159.15625 225.324219 158.0625 223.949219 159.140625 C 221.992188 160.675781 221.460938 163.785156 220.953125 166.050781 C 219.769531 171.304688 219.363281 176.585938 218.761719 181.917969 C 218.296875 186.039062 217.148438 190.085938 215.925781 194.035156 C 215.621094 195.019531 215.292969 196.011719 215.066406 197.023438 L 214.632812 196.535156 C 215.3125 195.417969 215.242188 193.542969 215.335938 192.296875 C 215.566406 189.199219 215.25 186.121094 214.453125 183.121094 C 214.164062 182.035156 213.917969 180.894531 213.382812 179.898438 C 212.730469 178.691406 210.890625 177.371094 209.4375 177.929688 C 208.449219 178.308594 207.824219 179.648438 207.652344 180.621094 C 207.402344 182.074219 207.820312 183.535156 208.058594 184.960938 C 208.3125 186.441406 208.40625 187.941406 208.410156 189.445312 C 208.421875 193.394531 207.53125 197.390625 207.804688 201.339844 C 208.191406 206.964844 211.007812 212.492188 214.414062 216.859375 C 216.25 219.210938 218.070312 221.558594 220.097656 223.75 C 220.597656 224.289062 221.109375 224.820312 221.585938 225.378906 C 221.835938 225.671875 222.070312 226.078125 222.457031 226.207031 C 224.160156 226.785156 226.4375 226.089844 227.964844 225.363281 C 228.886719 224.925781 229.75 224.355469 230.542969 223.707031 C 230.78125 223.667969 231.019531 223.617188 231.257812 223.5625 C 232.902344 223.167969 234.40625 222.371094 235.792969 221.414062 C 236.421875 220.980469 237.210938 220.503906 237.675781 219.875 C 238.15625 219.214844 237.957031 218.175781 237.90625 217.425781 C 237.839844 216.480469 237.921875 215.578125 238.089844 214.648438 C 238.753906 211.011719 240.40625 207.75 241.359375 204.207031 C 242.105469 201.417969 242.707031 198.714844 242.933594 195.828125 C 242.96875 195.386719 243.023438 194.886719 243.023438 194.398438 C 243.058594 193.765625 243.101562 193.136719 243.25 192.507812 C 244.179688 188.480469 246.597656 184.960938 247.269531 180.859375 C 247.464844 179.6875 247.636719 178.492188 247.675781 177.300781 C 247.695312 176.75 247.683594 176.054688 247.332031 175.589844 C 246.96875 175.121094 246.230469 174.945312 245.679688 174.878906 C 245.34375 174.835938 244.992188 174.820312 244.660156 174.902344 C 243.914062 175.089844 243.4375 175.792969 243.125 176.449219 C 242.445312 177.886719 242.257812 179.511719 241.796875 181.019531 C 241.28125 182.6875 240.171875 183.972656 239.273438 185.429688 C 238.851562 186.113281 238.441406 186.804688 238.035156 187.492188 C 238.160156 186.949219 238.28125 186.410156 238.390625 185.878906 C 238.839844 183.621094 239.164062 181.335938 239.488281 179.054688 C 239.957031 175.785156 240.40625 172.515625 240.863281 169.242188 C 241.078125 167.710938 241.621094 165.878906 241.410156 164.324219 C 241.085938 161.929688 237.167969 162.148438 236.199219 163.925781 C 235.433594 165.335938 235.277344 167.105469 235.039062 168.664062 C 234.726562 170.691406 234.386719 172.710938 234.015625 174.726562 C 233.566406 177.15625 233.136719 179.636719 232.59375 182.078125 " fill-opacity="1" fill-rule="evenodd"/><path fill="#111111" d="M 153.09375 49.269531 C 155.160156 47.003906 157.773438 44.796875 159.304688 43.53125 C 162.359375 41.015625 165.644531 38.703125 169.441406 37 C 183.558594 30.660156 200.402344 35.722656 211.535156 44.359375 C 216.484375 48.203125 219.8125 53.273438 224.855469 57.003906 C 229.480469 60.425781 235.492188 63.105469 241.171875 65.058594 C 243.59375 65.886719 246.078125 66.46875 248.636719 66.894531 C 248.867188 66.933594 250.808594 67.0625 250.878906 67.285156 C 250.949219 67.496094 247.90625 68.121094 247.683594 68.15625 C 246.960938 68.28125 246.234375 68.371094 245.5 68.433594 C 244.945312 68.484375 244.386719 68.523438 243.832031 68.566406 C 244.671875 68.675781 245.515625 68.738281 246.359375 68.734375 C 246.703125 68.734375 249.4375 68.242188 249.511719 68.703125 C 249.570312 69.054688 248.96875 69.542969 248.738281 69.78125 C 247.757812 70.789062 246.503906 71.617188 245.261719 72.386719 C 243.621094 73.402344 241.738281 74.34375 239.742188 74.777344 C 239.746094 74.804688 239.746094 74.835938 239.75 74.859375 C 240.84375 74.867188 241.933594 74.789062 243.003906 74.613281 C 244.519531 74.363281 245.972656 73.863281 247.121094 72.988281 C 247.523438 72.683594 247.867188 72.34375 248.171875 71.964844 C 248.210938 71.917969 248.707031 71.289062 248.722656 71.3125 C 248.890625 71.625 248.628906 72.316406 248.570312 72.625 C 248.367188 73.699219 248.082031 74.773438 247.621094 75.792969 C 247 77.175781 246.109375 78.28125 245.019531 79.152344 C 245.136719 80.246094 244.304688 82.082031 244.066406 82.503906 C 242.5625 85.191406 238.757812 89.4375 234.675781 88.933594 C 231.757812 88.574219 228.972656 86.574219 226.4375 85.433594 C 222.59375 83.703125 218.433594 82.273438 214.164062 81.511719 C 205.429688 79.957031 196.460938 80.53125 187.632812 79.75 C 183.605469 79.394531 169.359375 78.269531 169.214844 78.285156 C 166.003906 92.222656 154.917969 104.1875 152.386719 109.039062 C 151.9375 109.90625 153.539062 137.394531 153.539062 137.394531 C 153.539062 137.394531 136.128906 103.027344 134.59375 101.890625 C 132.417969 100.925781 130.234375 100.621094 127.789062 100.613281 C 127.207031 100.613281 128.257812 109.25 127.878906 108.707031 C 119.527344 96.730469 120.519531 73.105469 127.398438 61.453125 C 129.519531 57.859375 132.160156 52.515625 136.496094 50.367188 C 141.496094 47.886719 147.351562 48.699219 153.09375 49.269531 " fill-opacity="1" fill-rule="evenodd"/><path fill="#fa987d" d="M 219.121094 288.578125 C 219.582031 280.8125 219.84375 273.054688 219.820312 265.316406 C 219.765625 248.699219 217.476562 231.859375 215.027344 215.433594 L 237.910156 215.851562 C 237.714844 220.972656 239.492188 226.6875 240.511719 231.667969 C 241.820312 238.082031 243.464844 244.390625 245.25 250.652344 L 245.25 267.851562 C 245.25 279.296875 236.28125 288.578125 225.21875 288.578125 L 219.121094 288.578125 " fill-opacity="1" fill-rule="evenodd"/><path fill="#fdbcaa" d="M 105.242188 200.183594 C 100.816406 197.933594 96.46875 195.195312 92.617188 192.167969 L 101.496094 159.273438 C 103.613281 160.46875 105.582031 162.011719 107.585938 163.378906 C 112.234375 166.554688 116.734375 169.855469 120.804688 173.765625 C 123.945312 176.78125 127.21875 180.089844 128.789062 184.246094 C 131.277344 190.839844 127.808594 200.351562 121.183594 203.265625 C 122.6875 203.710938 124.171875 204.230469 125.636719 204.796875 C 131.257812 206.96875 138.460938 211.003906 139.296875 217.710938 C 139.515625 219.472656 139.253906 221.21875 138.777344 222.917969 C 138.285156 224.683594 137.527344 226.355469 136.566406 227.914062 C 135.328125 229.929688 133.878906 231.835938 132.164062 233.46875 C 128.464844 236.996094 123.703125 237.378906 118.835938 237.054688 C 117.789062 236.984375 116.742188 236.890625 115.695312 236.78125 C 117.425781 238.648438 118.402344 241.160156 118.160156 243.75 C 117.992188 245.585938 117.277344 247.339844 116.484375 248.988281 C 115.042969 251.988281 112.9375 254.78125 110.0625 256.542969 C 106.789062 258.554688 102.160156 258.875 98.695312 257.230469 C 96.347656 256.121094 94.78125 254.023438 93.261719 251.996094 C 91.273438 249.351562 90.574219 246.589844 90.0625 243.410156 L 101.171875 234.246094 C 99.871094 233.9375 98.574219 233.59375 97.292969 233.210938 C 96.222656 232.890625 94.992188 232.5625 94.289062 231.625 C 93.507812 230.585938 93.289062 229.207031 93.144531 227.953125 C 92.796875 224.890625 93.273438 221.726562 93.660156 218.691406 C 94.511719 211.988281 95.324219 205.261719 96.6875 198.640625 Z M 256.058594 168.472656 C 251.015625 164.753906 248.394531 157.933594 245.929688 152.421875 C 241.234375 141.9375 237.480469 130.6875 239.214844 119.054688 C 240.097656 113.128906 242.605469 107.394531 244.46875 101.722656 C 245.074219 99.882812 245.6875 98.035156 246.375 96.222656 C 246.984375 94.621094 247.675781 93.042969 248.464844 91.519531 C 251.550781 85.5625 256.246094 79.1875 263.492188 79.050781 C 264.851562 79.027344 266.179688 79.054688 267.425781 79.675781 C 275.101562 83.480469 272.441406 92.605469 271.859375 99.273438 C 271.636719 101.835938 271.546875 104.429688 271.722656 107 C 272.417969 117.257812 277.734375 126.671875 280.679688 136.382812 C 283.003906 144.050781 283.082031 152.457031 285.808594 159.964844 L 256.058594 168.472656 " fill-opacity="1" fill-rule="evenodd"/><path fill="#fa987d" d="M 97.714844 233.335938 C 99.0625 233.640625 100.425781 233.894531 101.773438 234.164062 C 105.230469 234.855469 108.640625 235.738281 112.113281 236.347656 C 113.371094 236.566406 114.625 236.773438 115.882812 236.988281 C 116.515625 237.710938 117.039062 238.523438 117.429688 239.398438 C 114.859375 240.117188 112.164062 239.730469 109.503906 239.589844 C 105.324219 239.367188 100.804688 239.339844 96.855469 237.808594 L 101.171875 234.246094 C 100.011719 233.96875 98.859375 233.667969 97.714844 233.335938 Z M 102.902344 199.761719 L 105.039062 200.144531 C 106.289062 200.445312 107.503906 201.011719 108.695312 201.433594 C 111.941406 202.585938 115.46875 203.886719 118.945312 204.007812 C 120.070312 204.046875 121.179688 203.863281 122.273438 203.601562 C 123.40625 203.964844 124.527344 204.371094 125.636719 204.796875 C 125.78125 204.851562 125.925781 204.910156 126.070312 204.96875 C 125.359375 205.949219 124.296875 206.570312 123.207031 207.109375 C 121.539062 207.9375 119.726562 208.589844 117.871094 208.832031 C 113.152344 209.445312 108.363281 206.964844 105.332031 203.464844 C 104.34375 202.328125 103.644531 201.046875 102.902344 199.761719 " fill-opacity="1" fill-rule="evenodd"/><path fill="#fdbcaa" d="M 115.789062 179.074219 C 117.089844 179.351562 118.40625 180.273438 119.546875 180.917969 C 120.734375 181.585938 121.917969 182.273438 123.039062 183.042969 C 123.421875 183.308594 124.082031 183.667969 124.285156 184.121094 C 124.371094 184.320312 124.265625 184.597656 124.214844 184.792969 C 124.09375 185.273438 123.957031 185.75 123.84375 186.230469 C 123.414062 188.042969 123.246094 189.902344 122.933594 191.738281 C 122.601562 193.6875 122.050781 195.554688 121.550781 197.464844 C 121.433594 197.914062 121.238281 199.039062 120.636719 199.113281 C 119.296875 199.269531 117.664062 198.484375 116.4375 198.0625 C 113.042969 196.890625 109.195312 195.855469 107.308594 192.515625 C 105.984375 190.171875 105.332031 186.667969 106.363281 184.109375 C 107.316406 181.742188 109.800781 180.003906 112.246094 179.386719 L 115.789062 179.074219 " fill-opacity="1" fill-rule="evenodd"/><path fill="#fdbcaa" d="M 123.425781 211.859375 C 124.644531 212.121094 125.882812 212.988281 126.953125 213.589844 C 128.066406 214.214844 129.175781 214.859375 130.230469 215.585938 C 130.589844 215.832031 131.207031 216.171875 131.398438 216.597656 C 131.480469 216.785156 131.382812 217.042969 131.335938 217.226562 C 131.222656 217.679688 131.09375 218.125 130.988281 218.578125 C 130.585938 220.28125 130.425781 222.027344 130.132812 223.746094 C 129.820312 225.578125 129.304688 227.332031 128.835938 229.125 C 128.726562 229.546875 128.542969 230.605469 127.976562 230.671875 C 126.714844 230.820312 125.1875 230.085938 124.035156 229.6875 C 120.84375 228.585938 117.230469 227.613281 115.460938 224.476562 C 114.21875 222.277344 113.605469 218.988281 114.574219 216.585938 C 115.472656 214.363281 117.800781 212.734375 120.09375 212.152344 L 123.425781 211.859375 " fill-opacity="1" fill-rule="evenodd"/><path fill="#fdbcaa" d="M 107.164062 237.039062 C 108.21875 237.265625 109.292969 238.019531 110.21875 238.539062 C 111.183594 239.082031 112.144531 239.640625 113.058594 240.269531 C 113.371094 240.484375 113.90625 240.777344 114.070312 241.144531 C 114.140625 241.304688 114.054688 241.53125 114.015625 241.691406 C 113.917969 242.082031 113.804688 242.46875 113.714844 242.863281 C 113.363281 244.335938 113.226562 245.847656 112.972656 247.339844 C 112.703125 248.925781 112.257812 250.445312 111.847656 251.996094 C 111.753906 252.359375 111.59375 253.277344 111.105469 253.335938 C 110.015625 253.464844 108.6875 252.828125 107.691406 252.484375 C 104.925781 251.53125 101.800781 250.6875 100.265625 247.972656 C 99.191406 246.066406 98.65625 243.214844 99.496094 241.132812 C 100.273438 239.210938 102.292969 237.796875 104.28125 237.296875 L 107.164062 237.039062 " fill-opacity="1" fill-rule="evenodd"/><path fill="#ffffff" d="M 194.476562 145.75 C 197.402344 145.972656 200.367188 145.785156 203.292969 145.675781 C 204.148438 145.640625 205.96875 145.238281 206.769531 145.703125 C 207.117188 145.902344 206.636719 147.652344 206.59375 147.949219 C 206.285156 150.144531 206.121094 152.550781 204.941406 154.488281 C 204.582031 155.078125 204.144531 155.640625 203.59375 156.0625 C 199.546875 159.164062 195.53125 154.191406 193.984375 150.917969 C 193.667969 150.238281 192 146.253906 191.738281 145.554688 L 194.476562 145.75 " fill-opacity="1" fill-rule="evenodd"/><path fill="#ffffff" d="M 217.785156 268.363281 L 217.363281 268.761719 L 227.367188 279.378906 L 227.789062 278.980469 L 217.785156 268.363281 " fill-opacity="1" fill-rule="evenodd"/><path fill="#ffffff" d="M 136.539062 269.71875 C 136.539062 269.523438 136.382812 269.363281 136.1875 269.363281 C 135.1875 269.363281 132.410156 269.355469 132.410156 269.355469 C 132.410156 269.355469 132.484375 267.539062 129.90625 267.546875 C 127.410156 267.554688 127.371094 269.363281 127.371094 269.363281 C 127.371094 269.363281 124.980469 269.363281 124.0625 269.363281 C 123.96875 269.363281 123.878906 269.402344 123.8125 269.46875 C 123.746094 269.53125 123.710938 269.625 123.710938 269.71875 C 123.710938 271.164062 123.710938 276.640625 123.710938 278.085938 C 123.710938 278.28125 123.867188 278.441406 124.0625 278.441406 C 125.898438 278.441406 134.351562 278.441406 136.1875 278.441406 C 136.382812 278.441406 136.539062 278.28125 136.539062 278.085938 C 136.539062 276.640625 136.539062 271.164062 136.539062 269.71875 " fill-opacity="1" fill-rule="evenodd"/><path fill="#000000" d="M 130.992188 276.257812 C 129.722656 276.679688 128.027344 276.246094 127.449219 274.9375 C 127.257812 274.507812 127.238281 274.003906 127.234375 273.539062 C 127.230469 273.144531 127.214844 272.734375 127.273438 272.339844 C 127.285156 272.253906 127.222656 272.167969 127.136719 272.15625 C 127.046875 272.144531 126.964844 272.203125 126.953125 272.292969 C 126.890625 272.703125 126.90625 273.132812 126.910156 273.542969 C 126.917969 274.050781 126.945312 274.597656 127.152344 275.070312 C 127.796875 276.527344 129.679688 277.035156 131.097656 276.566406 C 131.179688 276.535156 131.226562 276.445312 131.199219 276.359375 C 131.171875 276.273438 131.078125 276.226562 130.992188 276.257812 " fill-opacity="1" fill-rule="evenodd"/><path fill="#000000" d="M 128.828125 271.082031 C 130.097656 270.660156 131.796875 271.09375 132.371094 272.402344 C 132.5625 272.832031 132.582031 273.335938 132.585938 273.800781 C 132.59375 274.195312 132.609375 274.605469 132.550781 275 C 132.535156 275.089844 132.597656 275.171875 132.683594 275.183594 C 132.773438 275.199219 132.855469 275.136719 132.871094 275.046875 C 132.929688 274.636719 132.914062 274.207031 132.910156 273.796875 C 132.90625 273.289062 132.875 272.742188 132.667969 272.273438 C 132.027344 270.8125 130.140625 270.304688 128.726562 270.777344 C 128.640625 270.804688 128.59375 270.894531 128.621094 270.980469 C 128.652344 271.066406 128.742188 271.113281 128.828125 271.082031 " fill-opacity="1" fill-rule="evenodd"/><path fill="#000000" d="M 126.988281 272.183594 C 126.851562 272.378906 126.679688 272.550781 126.519531 272.730469 C 126.382812 272.886719 126.246094 273.050781 126.097656 273.199219 C 126.035156 273.261719 126.035156 273.363281 126.097656 273.425781 C 126.160156 273.492188 126.261719 273.492188 126.324219 273.429688 C 126.480469 273.277344 126.617188 273.105469 126.761719 272.945312 C 126.929688 272.757812 127.105469 272.578125 127.25 272.371094 C 127.304688 272.300781 127.285156 272.195312 127.214844 272.144531 C 127.140625 272.09375 127.039062 272.109375 126.988281 272.183594 " fill-opacity="1" fill-rule="evenodd"/><path fill="#000000" d="M 132.832031 275.15625 C 132.972656 274.960938 133.140625 274.789062 133.300781 274.613281 C 133.441406 274.457031 133.574219 274.289062 133.722656 274.144531 C 133.785156 274.082031 133.789062 273.976562 133.726562 273.914062 C 133.660156 273.851562 133.558594 273.851562 133.496094 273.914062 C 133.34375 274.0625 133.203125 274.234375 133.058594 274.394531 C 132.890625 274.582031 132.714844 274.765625 132.570312 274.96875 C 132.515625 275.042969 132.535156 275.144531 132.605469 275.195312 C 132.679688 275.246094 132.78125 275.230469 132.832031 275.15625 " fill-opacity="1" fill-rule="evenodd"/><path fill="#000000" d="M 127.027344 272.40625 C 127.128906 272.519531 127.203125 272.65625 127.285156 272.78125 C 127.453125 273.054688 127.617188 273.332031 127.773438 273.609375 C 127.816406 273.6875 127.917969 273.714844 127.996094 273.671875 C 128.074219 273.628906 128.097656 273.53125 128.054688 273.449219 C 127.894531 273.167969 127.730469 272.886719 127.558594 272.609375 C 127.46875 272.46875 127.382812 272.316406 127.269531 272.1875 C 127.207031 272.121094 127.105469 272.117188 127.039062 272.179688 C 126.972656 272.238281 126.96875 272.339844 127.027344 272.40625 " fill-opacity="1" fill-rule="evenodd"/><path fill="#000000" d="M 132.792969 274.933594 C 132.691406 274.820312 132.617188 274.6875 132.539062 274.558594 C 132.367188 274.285156 132.207031 274.011719 132.046875 273.730469 C 132.003906 273.652344 131.90625 273.625 131.824219 273.667969 C 131.75 273.710938 131.722656 273.8125 131.765625 273.890625 C 131.925781 274.171875 132.089844 274.453125 132.261719 274.730469 C 132.351562 274.875 132.4375 275.027344 132.554688 275.152344 C 132.613281 275.21875 132.714844 275.222656 132.78125 275.164062 C 132.847656 275.101562 132.851562 275 132.792969 274.933594 " fill-opacity="1" fill-rule="evenodd"/><path fill="#e51e44" d="M 175.75 237.039062 C 181.109375 237.039062 185.460938 241.394531 185.460938 246.757812 C 185.460938 252.121094 181.109375 256.472656 175.75 256.472656 C 170.390625 256.472656 166.039062 252.121094 166.039062 246.757812 C 166.039062 241.394531 170.390625 237.039062 175.75 237.039062 " fill-opacity="1" fill-rule="evenodd"/><path fill="#ffffff" d="M 175.550781 245.023438 C 175.566406 245.023438 175.582031 245.023438 175.601562 245.023438 C 175.75 245.015625 175.894531 245 176.042969 245.019531 C 176.238281 245.023438 176.441406 245.050781 176.628906 245.070312 C 177.734375 245.195312 178.804688 245.683594 179.632812 246.429688 C 179.910156 246.679688 180.273438 246.964844 180.152344 247.378906 C 180.136719 247.441406 180.109375 247.5 180.070312 247.550781 C 180.011719 247.648438 179.929688 247.730469 179.851562 247.8125 C 179.734375 247.933594 179.609375 248.039062 179.480469 248.140625 C 179.308594 248.269531 179.105469 248.460938 178.886719 248.496094 C 178.550781 248.550781 178.257812 248.214844 178.054688 248.003906 C 177.992188 247.945312 177.933594 247.882812 177.875 247.816406 C 177.796875 247.730469 177.71875 247.640625 177.644531 247.546875 C 177.570312 247.460938 177.5 247.371094 177.425781 247.28125 C 177.394531 247.242188 177.347656 247.195312 177.347656 247.140625 C 177.339844 246.964844 177.488281 246.765625 177.546875 246.605469 C 177.65625 246.308594 177.535156 245.988281 177.238281 245.878906 C 177.152344 245.84375 177.0625 245.824219 176.96875 245.816406 C 176.816406 245.804688 176.664062 245.8125 176.511719 245.8125 C 176.382812 245.8125 176.25 245.808594 176.117188 245.808594 C 176.070312 245.8125 176.019531 245.816406 175.972656 245.816406 C 175.964844 245.816406 175.957031 245.816406 175.953125 245.816406 C 175.921875 245.816406 175.894531 245.820312 175.863281 245.824219 L 175.863281 245.816406 C 175.789062 245.816406 175.710938 245.8125 175.636719 245.8125 L 175.636719 245.824219 C 175.421875 245.804688 175.203125 245.816406 174.988281 245.816406 C 174.835938 245.816406 174.683594 245.808594 174.53125 245.820312 C 174.4375 245.828125 174.347656 245.847656 174.257812 245.878906 C 173.960938 245.992188 173.839844 246.308594 173.953125 246.605469 C 174.011719 246.769531 174.15625 246.964844 174.152344 247.144531 C 174.152344 247.195312 174.101562 247.242188 174.070312 247.285156 C 173.996094 247.371094 173.925781 247.464844 173.855469 247.550781 C 173.777344 247.640625 173.703125 247.730469 173.621094 247.820312 C 173.5625 247.882812 173.503906 247.945312 173.445312 248.007812 C 173.238281 248.21875 172.945312 248.550781 172.613281 248.5 C 172.394531 248.464844 172.1875 248.273438 172.019531 248.140625 C 171.886719 248.042969 171.761719 247.933594 171.644531 247.816406 C 171.566406 247.734375 171.488281 247.648438 171.425781 247.554688 C 171.390625 247.5 171.363281 247.441406 171.34375 247.382812 C 171.222656 246.96875 171.585938 246.679688 171.863281 246.429688 C 172.691406 245.683594 173.761719 245.199219 174.867188 245.074219 C 174.886719 245.070312 174.90625 245.070312 174.929688 245.066406 C 175.007812 245.054688 175.085938 245.042969 175.167969 245.035156 C 175.207031 245.035156 175.242188 245.03125 175.28125 245.03125 C 175.371094 245.023438 175.460938 245.023438 175.550781 245.023438 " fill-opacity="1" fill-rule="evenodd"/><path fill="#ffffff" d="M 218.828125 273.3125 C 218.832031 273.320312 218.839844 273.339844 218.84375 273.351562 C 218.953125 273.632812 219.328125 274.371094 219.964844 275.042969 C 220.582031 275.691406 221.449219 276.285156 222.574219 276.28125 C 223.46875 276.277344 224.628906 275.625 224.628906 275.625 L 225.148438 276.171875 C 225.148438 276.171875 223.675781 277.035156 222.578125 277.039062 C 220.183594 277.046875 218.738281 274.871094 218.269531 273.925781 C 218.167969 273.71875 218.109375 273.566406 218.09375 273.5 C 218.070312 273.410156 218.074219 273.347656 218.078125 273.316406 C 218.109375 273.109375 218.304688 272.96875 218.511719 272.996094 C 218.675781 273.023438 218.804688 273.152344 218.828125 273.3125 " fill-opacity="1" fill-rule="evenodd"/><path fill="#ffffff" d="M 225.886719 275.203125 C 226.304688 274.714844 226.585938 274.15625 226.84375 273.1875 C 226.898438 272.984375 226.777344 272.777344 226.574219 272.722656 C 226.371094 272.667969 226.164062 272.789062 226.109375 272.992188 C 225.890625 273.8125 225.664062 274.296875 225.308594 274.710938 C 225.171875 274.867188 225.191406 275.109375 225.351562 275.246094 C 225.507812 275.382812 225.75 275.363281 225.886719 275.203125 " fill-opacity="1" fill-rule="evenodd"/><path fill="#ffffff" d="M 222.109375 276.914062 C 222.15625 277.683594 222.09375 278.460938 222.160156 279.226562 C 222.175781 279.4375 222.359375 279.589844 222.566406 279.574219 C 222.777344 279.554688 222.933594 279.375 222.914062 279.164062 C 222.851562 278.402344 222.914062 277.632812 222.867188 276.867188 C 222.851562 276.660156 222.671875 276.5 222.464844 276.511719 C 222.253906 276.527344 222.097656 276.707031 222.109375 276.914062 " fill-opacity="1" fill-rule="evenodd"/><path fill="#ffffff" d="M 169.855469 269.480469 L 168.722656 268.28125 L 169.140625 267.882812 L 179.144531 278.5 L 178.726562 278.898438 L 177.339844 277.425781 L 170.738281 277.425781 C 170.25 277.425781 169.855469 277.03125 169.855469 276.542969 Z M 171.546875 269.355469 L 179.144531 277.425781 C 179.144531 277.425781 179.144531 272.335938 179.144531 270.238281 C 179.144531 269.75 178.75 269.355469 178.261719 269.355469 C 176.257812 269.355469 171.546875 269.355469 171.546875 269.355469 Z M 182.289062 270.121094 C 182.46875 270.019531 182.6875 270.019531 182.867188 270.121094 C 183.042969 270.226562 183.152344 270.417969 183.152344 270.625 C 183.152344 272.066406 183.152344 274.714844 183.152344 276.15625 C 183.152344 276.363281 183.042969 276.554688 182.867188 276.65625 C 182.6875 276.761719 182.46875 276.761719 182.289062 276.660156 C 181.320312 276.101562 179.886719 275.273438 179.886719 275.273438 L 179.886719 271.507812 C 179.886719 271.507812 181.320312 270.679688 182.289062 270.121094 " fill-opacity="1" fill-rule="evenodd"/><path fill="#ffffff" d="M 220.347656 270.449219 L 223.796875 274.113281 L 223.816406 270.476562 C 223.492188 269.878906 222.886719 269.492188 222.210938 269.449219 C 221.53125 269.40625 220.878906 269.710938 220.480469 270.261719 C 220.398438 270.378906 220.347656 270.449219 220.347656 270.449219 " fill-opacity="1" fill-rule="evenodd"/><path fill="#ffffff" d="M 223.324219 274.910156 L 220.351562 271.753906 L 220.347656 273.25 C 220.347656 273.25 221.140625 274.617188 221.566406 275.355469 C 221.636719 275.476562 221.75 275.566406 221.886719 275.601562 C 222.023438 275.632812 222.167969 275.613281 222.285156 275.542969 C 222.722656 275.273438 223.324219 274.910156 223.324219 274.910156 " fill-opacity="1" fill-rule="evenodd"/><path fill="#ff3d3b" d="M 257.507812 59.753906 C 260.828125 53.296875 258.070312 43.800781 262.707031 37.808594 C 265.265625 34.5 272.105469 32.351562 272.121094 38.292969 C 272.121094 38.542969 272.105469 38.792969 272.078125 39.042969 C 277.050781 36.417969 282.796875 37.890625 280.757812 44.992188 C 277.6875 55.6875 265.578125 59.050781 256.246094 61.828125 L 256.660156 61.152344 L 256.5625 61.269531 C 256.429688 61.453125 256.292969 61.625 256.144531 61.792969 L 256.5625 61.269531 C 256.609375 61.210938 256.65625 61.144531 256.703125 61.082031 L 257.507812 59.753906 " fill-opacity="1" fill-rule="evenodd"/><path fill="#ff3d3b" d="M 287.308594 144.800781 C 289.703125 141.214844 288.71875 135.421875 291.859375 132.199219 C 293.59375 130.421875 297.773438 129.617188 297.382812 133.121094 C 297.367188 133.269531 297.339844 133.417969 297.308594 133.5625 C 300.417969 132.351562 303.710938 133.609375 302.027344 137.664062 C 299.496094 143.765625 292.117188 144.929688 286.425781 145.941406 L 286.710938 145.570312 L 286.648438 145.632812 C 286.558594 145.730469 286.464844 145.824219 286.367188 145.914062 L 286.648438 145.632812 C 286.679688 145.597656 286.710938 145.566406 286.742188 145.53125 L 287.308594 144.800781 " fill-opacity="1" fill-rule="evenodd"/><path fill="#ff3d3b" d="M 81.097656 68.949219 C 81.320312 63.617188 85.070312 59.054688 88.964844 63.851562 C 93.992188 70.050781 89.6875 78.65625 92.898438 85.28125 L 95.261719 88.5625 C 86.414062 91.757812 69.609375 82.109375 69.507812 72.546875 C 69.460938 68.460938 74.734375 65.542969 78.378906 66.898438 C 79.480469 67.308594 80.300781 68.125 81.097656 68.949219 " fill-opacity="1" fill-rule="evenodd"/><path fill="#ff3d3b" d="M 75.511719 149.269531 C 75.484375 146.851562 77.074219 144.703125 78.949219 146.777344 C 81.367188 149.460938 79.628906 153.457031 81.234375 156.371094 L 82.382812 157.800781 C 78.460938 159.457031 70.632812 155.496094 70.355469 151.171875 C 70.238281 149.328125 72.550781 147.882812 74.234375 148.410156 C 74.738281 148.566406 75.132812 148.914062 75.511719 149.269531 " fill-opacity="1" fill-rule="evenodd"/><path fill="#000000" d="M 230.414062 104.894531 C 229.707031 104.355469 228.847656 103.953125 227.925781 103.621094 C 226.601562 103.140625 225.171875 102.84375 223.964844 102.550781 C 222.085938 102.15625 220.179688 101.78125 218.246094 101.609375 C 217.328125 101.527344 216.410156 101.492188 215.492188 101.523438 C 215.097656 101.535156 214.699219 101.570312 214.308594 101.617188 C 214.136719 101.636719 213.964844 101.652344 213.800781 101.691406 C 213.539062 101.753906 213.304688 101.832031 213.058594 101.9375 C 212.558594 102.148438 212.148438 102.359375 211.683594 102.644531 C 211.210938 102.933594 210.855469 103.195312 210.414062 103.535156 C 211.324219 103.609375 212.039062 103.777344 212.933594 103.921875 C 213.207031 103.96875 213.449219 104.023438 213.730469 104.042969 C 213.988281 104.058594 214.246094 104.054688 214.503906 104.050781 C 214.867188 104.042969 215.226562 104.023438 215.585938 104.007812 C 216.433594 103.976562 217.285156 103.953125 218.136719 103.957031 C 220.003906 103.96875 221.871094 104.058594 223.710938 104.230469 C 224.914062 104.300781 226.328125 104.351562 227.675781 104.578125 C 228.570312 104.726562 229.425781 104.933594 230.160156 105.300781 C 230.273438 105.371094 230.421875 105.335938 230.488281 105.222656 C 230.558594 105.109375 230.523438 104.964844 230.414062 104.894531 " fill-opacity="1" fill-rule="evenodd"/><path fill="#000000" d="M 166.085938 99.492188 C 169.363281 99.152344 172.800781 99.21875 176.230469 99.609375 C 178.324219 99.847656 180.398438 100.222656 182.425781 100.746094 C 183.234375 100.957031 184.03125 101.1875 184.824219 101.433594 C 185.355469 101.59375 185.875 101.789062 186.410156 101.929688 C 186.855469 102.046875 187.292969 102.121094 187.742188 102.199219 C 188.886719 102.398438 189.898438 102.5 191.015625 102.769531 C 190.5 102.214844 190.042969 101.738281 189.46875 101.238281 C 188.90625 100.75 188.359375 100.332031 187.726562 99.933594 C 187.578125 99.84375 187.425781 99.765625 187.269531 99.691406 C 186.648438 99.40625 185.996094 99.191406 185.339844 98.988281 C 184.125 98.617188 182.871094 98.351562 181.605469 98.152344 C 179.523438 97.824219 177.402344 97.683594 175.292969 97.730469 C 172.097656 97.800781 168.964844 98.289062 166.003906 99.023438 C 165.871094 99.042969 165.785156 99.167969 165.808594 99.296875 C 165.832031 99.429688 165.953125 99.515625 166.085938 99.492188 " fill-opacity="1" fill-rule="evenodd"/></svg>